<svg viewBox="0 0 480 480.00001" xmlns="http://www.w3.org/2000/svg"><path d="m184.742188 201.894531 4.457031-3.824219c1.773437-1.519531 2.792969-3.734374 2.792969-6.070312s-1.019532-4.550781-2.792969-6.070312l-4.457031-3.824219c-32.316407-27.46875-80.28125-25.625-110.398438 4.238281-3.121094 3.125-3.121094 8.1875 0 11.3125 30.117188 29.863281 78.082031 31.707031 110.398438 4.238281zm-92.621094-9.894531c23.476562-17.820312 55.953125-17.820312 79.429687 0-23.480469 17.8125-55.949219 17.8125-79.429687 0zm0 0"/><path d="m42.664062 328h-13.6875c-6.183593-.019531-12.109374-2.472656-16.496093-6.832031l-11.3125 11.3125c7.390625 7.351562 17.382812 11.492187 27.808593 11.519531h13.6875c12.625-.003906 23.832032-8.082031 27.824219-20.058594 3.992188-11.976562-.128906-25.164062-10.222656-32.742187-12.726563-9.59375-20.226563-24.597657-20.265625-40.535157v-66.664062h-16v66.664062c.050781 20.972657 9.917969 40.710938 26.664062 53.335938 4.585938 3.445312 6.457032 9.4375 4.644532 14.882812-1.816406 5.441407-6.90625 9.113282-12.644532 9.117188zm0 0"/><path d="m44.441406 430.65625 48-32c2.621094-1.761719 3.964844-4.902344 3.421875-8.011719-.542969-3.113281-2.863281-5.617187-5.925781-6.386719l-64-16c-1.851562-.464843-3.804688-.253906-5.511719.597657l-16 8 7.148438 14.320312 13.355469-6.679687 43.582031 10.894531-30.910157 20.609375h-37.601562v16h40c1.578125-.003906 3.125-.46875 4.441406-1.34375zm0 0"/><path d="m320.566406 69.023438-45.980468 114.976562h-34.585938v-18.398438c0-91.460937-74.140625-165.601562-165.601562-165.601562h-74.398438v16h74.398438c82.625 0 149.601562 66.976562 149.601562 149.601562v18.398438h-16v16h16v56.976562c-.03125 15.910157-2.289062 31.738282-6.710938 47.023438h-129.289062v16h124.070312l-10.871093 30.449219c-4.222657 11.75-9.722657 23-16.398438 33.550781h-72.800781v16h61.472656c-32.4375 40.496094-81.523437 64.046875-133.410156 64h-40.0625v16h40.0625c61.136719.019531 118.414062-29.855469 153.386719-80h25.136719l29.980468 74.976562c1.21875 3.035157 4.160156 5.027344 7.433594 5.023438h224v-16h-218.585938l-29.980468-74.976562c-1.21875-3.035157-4.160156-5.027344-7.433594-5.023438h-20.632812c5.074218-9.019531 9.386718-18.441406 12.898437-28.175781l12.796875-35.824219h250.9375v-16h-246.03125c4.003906-15.355469 6.03125-31.15625 6.03125-47.023438v-56.976562h40c3.273438.003906 6.214844-1.988281 7.433594-5.023438l45.980468-114.976562h146.585938v-16h-152c-3.273438-.003906-6.214844 1.988281-7.433594 5.023438zm0 0"/><path d="m416 32h16v16h-16zm0 0"/><path d="m448 32h16v16h-16zm0 0"/><path d="m384 32h16v16h-16zm0 0"/><path d="m352 32h16v16h-16zm0 0"/><path d="m320 32h16v16h-16zm0 0"/><path d="m384 272h16v16h-16zm0 0"/><path d="m416 272h16v16h-16zm0 0"/><path d="m352 272h16v16h-16zm0 0"/><path d="m448 272h16v16h-16zm0 0"/><path d="m416 432h16v16h-16zm0 0"/><path d="m448 432h16v16h-16zm0 0"/><path d="m352 432h16v16h-16zm0 0"/><path d="m320 432h16v16h-16zm0 0"/><path d="m384 432h16v16h-16zm0 0"/></svg>