<svg viewBox="0 -39 479.97636 479" xmlns="http://www.w3.org/2000/svg"><path d="m240.023438 272.589844c-12.5625-.035156-23.976563 7.308594-29.15625 18.753906-5.179688 11.449219-3.164063 24.867188 5.15625 34.285156v34.960938c0 4.417968 3.582031 8 8 8h32c4.417968 0 8-3.582032 8-8v-34.960938c8.320312-9.417968 10.335937-22.835937 5.15625-34.285156-5.179688-11.445312-16.59375-18.789062-29.15625-18.753906zm10.640624 43.832031c-1.683593 1.515625-2.640624 3.675781-2.640624 5.941406v30.226563h-16v-30.226563c0-2.265625-.957032-4.425781-2.640626-5.941406-3.402343-2.992187-5.351562-7.304687-5.359374-11.832031 0-8.835938 7.164062-16 16-16 8.835937 0 16 7.164062 16 16-.007813 4.527344-1.957032 8.839844-5.359376 11.832031zm0 0"/><path d="m423.933594 154.429688c22.5-55.625-2.859375-119.097657-57.492188-143.90625-54.636718-24.804688-119.113281-2.125-146.1875 51.425781-17.003906-13.871094-38.289062-21.417969-60.230468-21.359375-43.207032.074218-81.054688 28.980468-92.496094 70.648437-35.929688 13.472657-61.519532 45.632813-66.574219 83.667969-5.058594 38.039062 11.238281 75.769531 42.398437 98.164062.816407.589844 1.742188 1.019532 2.71875 1.261719l8 2.015625c.640626.160156 1.296876.242188 1.953126.242188h88v88c0 8.835937 7.164062 16 16 16h160c8.835937 0 16-7.164063 16-16v-88h102.863281c1.953125-.003906 3.835937-.714844 5.296875-2.007813 30.734375-27.203125 42.6875-62.042969 32-93.304687-8.0625-23.652344-27.859375-41.402344-52.25-46.847656zm-103.910156 230.160156h-160v-128h104c4.417968 0 8-3.582032 8-8v-32c0-8.835938-7.164063-16-16-16h-32c-8.835938 0-16 7.164062-16 16v24h-16v-32c0-13.257813 10.746093-24 24-24h48c13.253906 0 24 10.742187 24 24v40c0 4.417968 3.582031 8 8 8h24zm-96-144v-24h32v24zm211.785156 40h-99.785156v-24c0-8.835938-7.164063-16-16-16h-16v-32c-.027344-22.082032-17.917969-39.976563-40-40h-48c-22.082032.023437-39.972657 17.917968-40 40v32h-16c-8.835938 0-16 7.164062-16 16v24h-87.007813l-5.519531-1.394532c-24.453125-18.203124-37.738282-47.769531-35.121094-78.140624 2.617188-30.371094 20.769531-57.226563 47.976562-70.976563-.144531 2.160156-.328124 4.308594-.328124 6.511719-.050782 15.175781 3.542968 30.140625 10.480468 43.640625l14.238282-7.28125c-5.769532-11.25-8.757813-23.71875-8.71875-36.359375.046874-44.164063 35.835937-79.953125 80-80 19.890624-.066406 39.074218 7.359375 53.734374 20.796875-3.785156 11.351562-5.722656 23.238281-5.734374 35.203125h16c.019531-39.746094 24.53125-75.371094 61.644531-89.59375 37.113281-14.226563 79.152343-4.109375 105.730469 25.445312 26.582031 29.550782 32.199218 72.421875 14.136718 107.828125-1.628906 2.371094-1.859375 5.4375-.597656 8.027344 1.257812 2.589844 3.8125 4.300781 6.6875 4.484375 22.578125 1.386719 42.089844 16.269531 49.398438 37.679688 8.425781 24.582031-.769532 51.464843-25.214844 74.128906zm0 0"/></svg>