<svg viewBox="0 -72 480 480" xmlns="http://www.w3.org/2000/svg"><path d="m424 264v-224c0-4.417969-3.582031-8-8-8h-352c-4.417969 0-8 3.582031-8 8v224c0 4.417969 3.582031 8 8 8h352c4.417969 0 8-3.582031 8-8zm-16-8h-336v-208h336zm0 0"/><path d="m472 288h-24.207031c5.292969-6.882812 8.175781-15.316406 8.207031-24v-224c-.027344-22.082031-17.917969-39.9726562-40-40h-352c-22.082031.0273438-39.972656 17.917969-40 40v224c.03125 8.683594 2.914062 17.117188 8.207031 24h-24.207031c-4.417969 0-8 3.582031-8 8 0 40 42.152344 40 56 40h368c13.847656 0 56 0 56-40 0-4.417969-3.582031-8-8-8zm-432-24v-224c0-13.253906 10.746094-24 24-24h352c13.253906 0 24 10.746094 24 24v224c0 13.253906-10.746094 24-24 24h-352c-13.253906 0-24-10.746094-24-24zm384 56h-368c-26.585938 0-36.238281-6.152344-39.03125-16h446.0625c-2.792969 9.847656-12.445312 16-39.03125 16zm0 0"/><path d="m328 184c17.671875 0 32-14.328125 32-32s-14.328125-32-32-32-32 14.328125-32 32 14.328125 32 32 32zm0-48c8.835938 0 16 7.164062 16 16s-7.164062 16-16 16-16-7.164062-16-16 7.164062-16 16-16zm0 0"/><path d="m96 232h48c4.417969 0 8-3.582031 8-8v-16h-16v8h-32v-52.6875l10.34375 10.34375c1.5 1.5 3.535156 2.34375 5.65625 2.34375h12.6875l13.65625 13.65625c3.125 3.121094 8.1875 3.121094 11.3125 0l13.65625-13.65625 14.03125 20.441406c1.570312 2.097656 4.035156 3.332032 6.65625 3.332032s5.085938-1.234376 6.65625-3.332032l10.582031-15.882812 9.105469 9.097656c3.125 3.121094 8.1875 3.121094 11.3125 0l13.65625-13.65625h25.375c11.488281 28.398438 41.488281 44.671875 71.554688 38.820312 30.070312-5.851562 51.777343-32.1875 51.777343-62.820312s-21.707031-56.96875-51.777343-62.820312c-30.066407-5.851563-60.066407 10.421874-71.554688 38.820312h-148.6875c-2.121094 0-4.15625.84375-5.65625 2.34375l-10.34375 10.34375v-52.6875h32v24h16v-32c0-4.417969-3.582031-8-8-8h-48c-4.417969 0-8 3.582031-8 8v144c0 4.417969 3.582031 8 8 8zm27.3125-88h151.039062c3.539063 0 6.65625-2.328125 7.664063-5.71875 6.8125-22.839844 29.347656-37.21875 52.929687-33.777344 23.582032 3.441406 41.066407 23.664063 41.066407 47.496094s-17.484375 44.054688-41.066407 47.496094c-23.582031 3.441406-46.117187-10.9375-52.929687-33.777344-1.007813-3.390625-4.125-5.71875-7.664063-5.71875h-34.351562c-2.121094 0-4.15625.84375-5.65625 2.34375l-10.34375 10.34375-10.34375-10.34375c-1.695312-1.695312-4.058594-2.539062-6.445312-2.304688-2.382813.234376-4.535157 1.527344-5.867188 3.519532l-9.34375 14.042968-9.34375-14.015624c-1.480469-2.234376-3.976562-3.582032-6.65625-3.585938h-8c-2.121094 0-4.15625.84375-5.65625 2.34375l-10.34375 10.34375-10.34375-10.34375c-1.5-1.5-3.535156-2.34375-5.65625-2.34375h-12.6875l-8-8zm0 0"/></svg>