<svg viewBox="0 -56 480 480" xmlns="http://www.w3.org/2000/svg"><path d="m448 0h-416c-17.671875 0-32 14.328125-32 32v224c0 17.671875 14.328125 32 32 32h256v48c0 17.671875 14.328125 32 32 32h128c17.671875 0 32-14.328125 32-32v-304c0-17.671875-14.328125-32-32-32zm16 96h-448v-32h448zm-432-80h416c8.835938 0 16 7.164062 16 16v16h-448v-16c0-8.835938 7.164062-16 16-16zm256 240v16h-256c-8.835938 0-16-7.164062-16-16v-144h448v116.449219c-4.84375-2.878907-10.367188-4.417969-16-4.449219v-32c-.027344-22.082031-17.917969-39.972656-40-40h-48c-22.082031.027344-39.972656 17.917969-40 40v32c-17.671875 0-32 14.328125-32 32zm176 80c0 8.835938-7.164062 16-16 16h-128c-8.835938 0-16-7.164062-16-16v-80c0-8.835938 7.164062-16 16-16h88c4.417969 0 8-3.582031 8-8v-32c0-8.835938-7.164062-16-16-16h-32c-8.835938 0-16 7.164062-16 16v24h-16v-32c0-13.253906 10.746094-24 24-24h48c13.253906 0 24 10.746094 24 24v40c0 4.417969 3.582031 8 8 8h8c8.835938 0 16 7.164062 16 16zm-96-112v-24h32v24zm0 0"/><path d="m400 256h-8v-8h-16v8h-8c-4.417969 0-8 3.582031-8 8v32c0 4.417969 3.582031 8 8 8h24v16h-16v-8h-16v16c0 4.417969 3.582031 8 8 8h8v8h16v-8h8c4.417969 0 8-3.582031 8-8v-32c0-4.417969-3.582031-8-8-8h-24v-16h16v8h16v-16c0-4.417969-3.582031-8-8-8zm0 0"/><path d="m296 128h-256c-4.417969 0-8 3.582031-8 8v32c0 4.417969 3.582031 8 8 8h256c4.417969 0 8-3.582031 8-8v-32c0-4.417969-3.582031-8-8-8zm-8 32h-240v-16h240zm0 0"/></svg>