<svg viewBox="0 -72 480 480" xmlns="http://www.w3.org/2000/svg"><path d="m424 264v-224c0-4.417969-3.582031-8-8-8h-352c-4.417969 0-8 3.582031-8 8v224c0 4.417969 3.582031 8 8 8h352c4.417969 0 8-3.582031 8-8zm-75.558594-54.65625-8.878906 13.3125 50.039062 33.34375h-299.199218l50.015625-33.34375-8.882813-13.3125-59.535156 39.710938v-194.109376l59.5625 39.710938 8.878906-13.3125-50.039062-33.34375h299.199218l-50.015624 33.34375 8.878906 13.3125 59.535156-39.710938v194.109376zm0 0"/><path d="m472 288h-24.207031c5.292969-6.882812 8.179687-15.316406 8.207031-24v-224c-.027344-22.082031-17.917969-39.9726562-40-40h-352c-22.078125.0273438-39.972656 17.917969-40 40v224c.03125 8.683594 2.914062 17.117188 8.207031 24h-24.207031c-4.417969 0-8 3.582031-8 8 0 40 42.152344 40 56 40h368c13.847656 0 56 0 56-40 0-4.417969-3.582031-8-8-8zm-432-24v-224c0-13.253906 10.746094-24 24-24h352c13.253906 0 24 10.746094 24 24v224c0 13.253906-10.746094 24-24 24h-352c-13.253906 0-24-10.746094-24-24zm384 56h-368c-26.582031 0-36.238281-6.152344-39.03125-16h446.0625c-2.789062 9.847656-12.445312 16-39.03125 16zm0 0"/><path d="m306.136719 101.863281c6.601562-16.207031.875-34.824219-13.695313-44.519531l-8.878906 13.3125c7.648438 5.035156 11.046875 14.523438 8.328125 23.273438-15.65625-8.207032-34.414063-7.875-49.769531.878906l-12.464844-12.464844c-1.5-1.5-3.535156-2.34375-5.65625-2.34375h-16v16h12.6875l8.800781 8.800781c-.214843.238281-.457031.4375-.671875.679688l-13.617187 15.320312c-3.015625 3.390625-5.847657 6.917969-8.535157 10.535157l-9.023437-9.023438c-1.5-1.484375-3.527344-2.316406-5.640625-2.3125h-16v16h12.6875l8.976562 8.984375c-4.359374 7.351563-8.101562 15.046875-11.191406 23.015625h-18.472656c-3.03125 0-5.804688 1.710938-7.160156 4.425781l-8 16 14.320312 7.148438 5.785156-11.574219h8.359376c-3.5 13.046875-5.28125 26.492188-5.304688 40 0 4.417969 3.582031 8 8 8 13.507812-.019531 26.957031-1.800781 40-5.304688v8.359376l-11.574219 5.785156 7.152344 14.320312 16-8c2.710937-1.355468 4.425781-4.128906 4.421875-7.160156v-18.472656c7.96875-3.09375 15.667969-6.839844 23.015625-11.199219l8.984375 8.984375v12.6875h16v-16c0-2.121094-.84375-4.15625-2.34375-5.65625l-9.03125-9.03125c3.609375-2.679688 7.128906-5.511719 10.519531-8.519531l15.34375-13.601563c.242188-.214844.441407-.464844.679688-.679687l8.800781 8.800781v12.6875h16v-16c0-2.121094-.84375-4.15625-2.34375-5.65625l-12.472656-12.472656c8.757812-15.347656 9.097656-34.097656.894531-49.75 8.742187-2.632813 18.175781.742187 23.265625 8.320312l13.3125-8.882812c-9.71875-14.519532-28.285156-20.238282-44.488281-13.695313zm-38.304688 2.136719c14.171875-.09375 27.074219 8.148438 32.949219 21.042969 5.871094 12.894531 3.621094 28.039062-5.75 38.667969l-50.742188-50.742188c6.515626-5.722656 14.871094-8.90625 23.542969-8.96875zm15.570313 70.710938-6.890625 6.121093c-20.109375 17.878907-44.976563 29.539063-71.582031 33.566407l59.070312-59.085938zm-56.203125-43.246094 6.113281-6.871094 19.375 19.40625-59.085938 59.070312c4.039063-26.613281 15.710938-51.488281 33.597657-71.605468zm0 0"/></svg>