<svg viewBox="-12 0 480 480" xmlns="http://www.w3.org/2000/svg"><path d="m448 96h-72v-48c-.027344-26.5-21.5-47.9726562-48-48h-264c-26.5.0273438-47.972656 21.5-48 48v176c-8.835938 0-16 7.164062-16 16v224c0 8.835938 7.164062 16 16 16h320c8.835938 0 16-7.164062 16-16v-216c0-8.835938-7.164062-16-16-16h-40v-16h112c26.5-.027344 47.972656-21.5 48-48v-64c0-4.417969-3.582031-8-8-8zm-416-48c0-17.671875 14.328125-32 32-32h228.320312c-7.925781 8.773438-12.316406 20.175781-12.320312 32v216h-139.054688l-15.578124-31.160156c-2.695313-5.433594-8.246094-8.859375-14.3125-8.839844h-79.054688zm304 416h-320v-224h95.054688l15.578124 31.199219c2.707032 5.417969 8.253907 8.828125 14.3125 8.800781h195.054688zm0-216v16h-40v-16zm-40-200c0-17.671875 14.328125-32 32-32s32 14.328125 32 32v128h.71875c1.515625 8.9375 5.539062 17.261719 11.601562 24h-76.320312zm144 120c0 17.671875-14.328125 32-32 32s-32-14.328125-32-32v-56h64zm0 0"/><path d="m189.792969 311.664062c-2.875-4.886718-8.121094-7.890624-13.792969-7.890624s-10.917969 3.003906-13.792969 7.890624l-66.007812 112.222657c-2.910157 4.949219-2.945313 11.074219-.097657 16.058593 2.851563 4.980469 8.152344 8.054688 13.890626 8.054688h132c5.738281 0 11.039062-3.074219 13.890624-8.054688 2.847657-4.984374 2.8125-11.109374-.097656-16.058593zm-79.800781 120.335938 66.007812-112.222656 66.007812 112.222656zm0 0"/><path d="m168 352h16v40h-16zm0 0"/><path d="m168 408h16v16h-16zm0 0"/><path d="m48 64h24v16h-24zm0 0"/><path d="m120 64h16v16h-16zm0 0"/><path d="m152 64h56v16h-56zm0 0"/><path d="m224 64h40v16h-40zm0 0"/><path d="m48 96h56v16h-56zm0 0"/><path d="m120 96h16v16h-16zm0 0"/><path d="m152 96h40v16h-40zm0 0"/><path d="m208 96h56v16h-56zm0 0"/><path d="m48 128h32v16h-32zm0 0"/><path d="m96 128h40v16h-40zm0 0"/><path d="m152 128h16v16h-16zm0 0"/><path d="m184 128h80v16h-80zm0 0"/><path d="m48 160h48v16h-48zm0 0"/><path d="m112 160h24v16h-24zm0 0"/><path d="m152 160h24v16h-24zm0 0"/><path d="m192 160h72v16h-72zm0 0"/><path d="m88 64h16v16h-16zm0 0"/><path d="m48 192h56v16h-56zm0 0"/><path d="m120 192h16v16h-16zm0 0"/><path d="m152 192h40v16h-40zm0 0"/><path d="m208 192h56v16h-56zm0 0"/></svg>