<svg viewBox="0 0 480.59377 480" xmlns="http://www.w3.org/2000/svg"><path d="m440.519531.347656h-200.554687v15.996094h200.554687c13.25 0 23.992188 10.746094 23.992188 23.996094v319.933594c0 13.253906-10.742188 23.992187-23.992188 23.992187h-200.554687v15.996094h68.835937l26.65625 31.996093h-95.492187v15.996094h196.6875l16.292968 15.996094h-212.980468v15.996094h232.546875c3.246093-.003906 6.164062-1.96875 7.390625-4.972656 1.226562-3.003907.519531-6.449219-1.796875-8.726563l-32.574219-31.992187c-1.496094-1.472657-3.511719-2.296876-5.605469-2.296876h-83.648437l-26.660156-31.996093h110.902343c22.070313-.027344 39.960938-17.914063 39.988281-39.988281v-319.933594c-.027343-22.074219-17.917968-39.964844-39.988281-39.992188zm0 0"/><path d="m47.511719 284.683594c.933593.796875 1.457031 1.976562 1.425781 3.203125-.03125 1.230469-.617188 2.378906-1.59375 3.128906l-44.207031 34 9.757812 12.679687 44.199219-34c4.804688-3.691406 7.6875-9.351562 7.84375-15.410156.15625-6.054687-2.433594-11.855468-7.046875-15.785156-26.589844-22.777344-41.890625-56.046875-41.878906-91.0625v-26.039062c0-3.730469.199219-7.417969.519531-11.082032h116.410156l69.710938 61.972656c2.140625 1.898438 5.132812 2.507813 7.847656 1.601563l62.078125-20.691406c.136719.421875.316406.832031.527344 1.222656l19.195312 31.9375-31.285156 12.5c-3.050781 1.207031-5.054687 4.15625-5.054687 7.4375v19.195313c-.019532 10.199218-4.660157 19.839843-12.625 26.214843-7.960938 6.371094-18.386719 8.792969-28.339844 6.578125l-45.800782-10.171875c-7.089843-1.597656-14.527343.128907-20.195312 4.6875l-20.042969 16.039063c-5.328125 4.257812-8.59375 10.589844-8.972656 17.40625-.378906 6.8125 2.164063 13.46875 6.988281 18.296875l14.273438 14.265625c12.042968 11.984375 18.792968 28.289062 18.738281 45.28125v82.15625h15.996094v-82.15625c.058593-21.222656-8.378907-41.589844-23.429688-56.554688l-14.265625-14.273437c-1.609375-1.609375-2.457031-3.824219-2.328125-6.097657.125-2.269531 1.214844-4.382812 2.992188-5.800781l20.042969-16.046875c1.886718-1.527344 4.359374-2.113281 6.730468-1.597656l45.808594 10.179688c14.691406 3.265624 30.070312-.308594 41.820312-9.714844 11.742188-9.414063 18.589844-23.640625 18.609376-38.691406v-13.777344l34.96875-13.984375c2.175781-.867188 3.863281-2.652344 4.605468-4.875.746094-2.226563.480469-4.664063-.726562-6.671875l-22.851563-38.089844v-26.695312c0-3.734376-.140625-7.425782-.425781-11.082032h48.414062v-15.996094h-50.628906c-5.839844-30.890624-21.691406-59-45.105468-79.984374h192.308593v16h-48.582031v15.996093h48.582031v15.996094h-8.59375v15.996094h8.59375v39.992187h-32.585937v15.996094h32.585937v15.996094h-8.59375v15.996094h8.59375v47.992187h-8.59375v15.996094h8.59375v55.988281h-192.554687v15.996094h200.554687c4.414063 0 7.996094-3.582032 7.996094-8v-287.9375c0-4.417969-3.582031-8-7.996094-8h-200.554687v15.78125c-42.308594-37.847656-102.914063-47.292969-154.738282-24.121094-51.828124 23.164062-85.195312 74.628906-85.210937 131.398438v26.039062c-.01953125 39.703125 17.332031 77.425781 47.496094 103.246094zm224.449219-129.285156v15.148437l-62.132813 20.714844-52.804687-46.945313h114.417968c.320313 3.664063.519532 7.351563.519532 11.082032zm-176.699219-118.335938c35.035156-14.421875 74.664062-12.578125 108.207031 5.039062 33.546875 17.613282 57.5625 49.1875 65.582031 86.21875h-250.128906c8.816406-41.160156 37.382813-75.3125 76.339844-91.257812zm0 0"/><path d="m223.96875 152.316406h15.996094v15.996094h-15.996094zm0 0"/><path d="m303.953125 64.335938h31.992187v15.996093h-31.992187zm0 0"/><path d="m351.941406 64.335938h15.996094v15.996093h-15.996094zm0 0"/><path d="m303.953125 96.328125h15.996094v15.996094h-15.996094zm0 0"/><path d="m335.945312 96.328125h15.996094v15.996094h-15.996094zm0 0"/><path d="m367.9375 96.328125h39.992188v15.996094h-39.992188zm0 0"/><path d="m335.945312 184.308594h15.996094v15.996094h-15.996094zm0 0"/><path d="m367.9375 184.308594h39.992188v15.996094h-39.992188zm0 0"/><path d="m335.945312 216.300781h55.988282v15.996094h-55.988282zm0 0"/><path d="m335.945312 248.296875h31.992188v15.996094h-31.992188zm0 0"/><path d="m383.9375 248.296875h23.992188v15.996094h-23.992188zm0 0"/><path d="m407.929688 216.300781h15.996093v15.996094h-15.996093zm0 0"/><path d="m335.945312 152.316406h15.996094v15.996094h-15.996094zm0 0"/><path d="m367.9375 152.316406h16v15.996094h-16zm0 0"/></svg>