<svg viewBox="0 0 480 480" xmlns="http://www.w3.org/2000/svg"><path d="m121.839844 94.535156c72.96875-42.769531 163.351562-42.769531 236.320312 0l8.085938-13.800781c-77.957032-45.707031-174.535156-45.707031-252.492188 0zm0 0"/><path d="m88.753906 97.679688c-4.898437 3.808593-9.65625 7.832031-14.167968 12l10.828124 11.777343c4.1875-3.847656 8.617188-7.59375 13.160157-11.121093zm0 0"/><path d="m352.136719 47 7.726562-14c-74.585937-41.390625-165.191406-41.632812-240-.640625l-3.664062 1.992187 7.664062 14.046876 3.664063-1.992188c70.007812-38.363281 154.804687-38.140625 224.609375.59375zm0 0"/><path d="m64 288c.003906-58.175781 28.75-112.59375 76.800781-145.390625l-9.03125-13.21875c-52.414062 35.785156-83.765625 95.148437-83.769531 158.609375zm0 0"/><path d="m432 288c-.046875-60.859375-28.925781-118.097656-77.84375-154.300781-48.921875-36.207031-112.097656-47.09375-170.316406-29.355469l4.671875 15.304688c53.367187-16.261719 111.28125-6.28125 156.125 26.90625 44.847656 33.1875 71.316406 85.65625 71.363281 141.445312zm0 0"/><path d="m302.726562 283.601562 2.511719-11.203124c6.457031-28.78125-6.878906-58.363282-32.722656-72.585938-25.839844-14.21875-57.96875-9.652344-78.828125 11.203125l-4.382812 4.382813c-13.699219 13.691406-20.71875 32.695312-19.199219 52 3.5625 46.984374-12.726563 93.3125-44.914063 127.722656l-37 39.464844 11.664063 10.941406 36.945312-39.519532c35.261719-37.683593 53.109375-88.425781 49.199219-139.886718-1.136719-14.644532 4.191406-29.046875 14.585938-39.425782l4.382812-4.375c15.820312-15.824218 40.195312-19.292968 59.800781-8.503906 19.605469 10.785156 29.726563 33.230469 24.832031 55.0625l-2.511718 11.199219c-16.179688 67.390625-45.257813 131.003906-85.632813 187.328125l13.085938 9.1875c41.589843-58.03125 71.535156-123.570312 88.183593-192.992188zm0 0"/><path d="m248 240h-16v19.519531c.089844 42.832031-13.636719 84.554688-39.136719 118.96875l-63.375 88.863281 13.023438 9.296876 63.3125-88.800782c27.484375-37.132812 42.273437-82.128906 42.175781-128.328125zm0 0"/><path d="m342.535156 385.542969c22.015625-41.664063 30.65625-89.105469 24.738282-135.855469-4.875-39.328125-29.121094-73.601562-64.585938-91.289062l-7.816406-3.902344c-35.390625-17.699219-77.28125-16.566406-111.664063 3.023437-34.382812 19.589844-56.71875 55.050781-59.535156 94.519531-2.136719 30.886719-16.332031 59.695313-39.519531 80.207032l-33.464844 29.769531 10.625 12 33.496094-29.777344c26.296875-23.289062 42.386718-55.984375 44.800781-91.03125 2.417969-34.15625 21.734375-64.851562 51.484375-81.804687 29.753906-16.957032 66.003906-17.933594 96.625-2.601563l7.808594 3.902344c30.679687 15.296875 51.65625 44.941406 55.871094 78.960937 5.492187 43.496094-2.542969 87.628907-23.015626 126.398438l-47.460937 90.210938 14.15625 7.453124zm0 0"/><path d="m408 296h-16c.125 41.5625-13.363281 82.023438-38.398438 115.199219l12.796876 9.601562c27.121093-35.945312 41.730468-79.773437 41.601562-124.800781zm0 0"/><path d="m291.054688 384.695312c-2.578126 6.445313-5.742188 12.640626-9.453126 18.503907l12.796876 9.601562c4.488281-6.796875 8.265624-14.035156 11.273437-21.601562 1.9375-4.351563 3.769531-8.464844 5.34375-11.351563l-14.03125-7.679687c-1.894531 3.457031-3.855469 7.832031-5.929687 12.527343zm0 0"/><path d="m320.0625 286.960938c-.039062.320312-4.199219 32.367187-7.832031 47.128906l15.539062 3.820312c3.847657-15.636718 8-47.550781 8.167969-48.902344zm0 0"/><path d="m455.0625 209.792969c-10.207031-43.863281-34.5-83.179688-69.160156-111.9375l-10.246094 12.289062c31.984375 26.539063 54.40625 62.824219 63.832031 103.304688zm0 0"/><path d="m16 16h72v-16h-80c-4.417969 0-8 3.582031-8 8v80h16zm0 0"/><path d="m472 0h-80v16h72v72h16v-80c0-4.417969-3.582031-8-8-8zm0 0"/><path d="m8 480h80v-16h-72v-72h-16v80c0 4.417969 3.582031 8 8 8zm0 0"/><path d="m464 464h-72v16h80c4.417969 0 8-3.582031 8-8v-80h-16zm0 0"/></svg>