<svg viewBox="0 -5 480 480" xmlns="http://www.w3.org/2000/svg"><path d="m331.847656 244.152344c22.9375-19.695313 36.136719-48.417969 36.152344-78.648438v-27.703125c-.125-54.496093-31.671875-104.035156-81-127.199219-29.785156-13.9375-64.214844-13.9375-94 0-49.328125 23.164063-80.875 72.703126-81 127.199219v27.703125c.015625 30.230469 13.21875 58.953125 36.152344 78.648438-82.304688 30.199218-148.152344 66.953125-148.152344 170.863281v22.488281c0 17.675782 14.328125 32 32 32h416c17.671875 0 32-14.324218 32-32v-22.488281c0-103.910156-65.847656-140.664063-148.152344-170.863281zm-23.457031-63.144532c1.9375 1.769532 4 3.546876 6.152344 5.257813-14.574219-.011719-28.902344-3.773437-41.597657-10.929687l20.269532-8.101563zm-180.390625-43.207031c.109375-48.28125 28.0625-92.171875 71.769531-112.6875 25.492188-11.9375 54.96875-11.9375 80.464844 0 43.707031 20.515625 71.65625 64.40625 71.765625 112.6875v27.703125c-.019531 5.371094-.53125 10.726563-1.527344 16h-6.472656c-9.582031-.640625-18.507812-5.082031-24.800781-12.335937l-40.328125-36.648438c-21.96875-20.136719-55.691406-20.136719-77.664063 0l-40.328125 36.648438c-6.308594 7.273437-15.269531 11.71875-24.878906 12.335937h-6.472656c-.996094-5.273437-1.507813-10.628906-1.527344-16zm58.769531 29.433594 20.34375 8.125c-12.71875 7.183594-27.078125 10.945313-41.679687 10.921875 2.175781-1.71875 4.230468-3.503906 6.175781-5.273438zm-52.65625 30.269531h.800781c32.355469 10.378906 67.761719 3.695313 94.109376-17.757812 2.222656-1.78125 3.332031-4.605469 2.914062-7.421875-.421875-2.8125-2.300781-5.195313-4.945312-6.25l-27.054688-10.808594 12-10.914063c15.890625-14.53125 40.25-14.53125 56.144531 0l12 10.914063-27.035156 10.808594c-2.601563 1.160156-4.390625 3.621093-4.695313 6.453125-.328124 2.914062.863282 5.792968 3.160157 7.617187 26.289062 21.164063 61.460937 27.691407 93.59375 17.359375h.800781c-13.191406 33.730469-45.6875 55.949219-81.90625 56h-48c-36.210938-.058594-68.699219-22.273437-81.886719-56zm233.886719 256h-256v-128c0-13.253906 10.746094-24 24-24h208c13.253906 0 24 10.746094 24 24zm96-16c0 8.835938-7.164062 16-16 16h-64v-128c-.027344-22.078125-17.917969-39.972656-40-40h-208c-22.078125.027344-39.972656 17.921875-40 40v128h-64c-8.835938 0-16-7.164062-16-16v-22.488281c0-89.679687 49.90625-124.535156 148-159.566406 15.785156 9.207031 33.726562 14.054687 52 14.054687h48c18.273438 0 36.21875-4.847656 52-14.054687 98.097656 35.03125 148 69.886719 148 159.566406zm0 0"/><path d="m280 365.503906h-8v-24c0-17.671875-14.328125-32-32-32s-32 14.328125-32 32h16c0-8.835937 7.164062-16 16-16s16 7.164063 16 16v24h-56c-4.417969 0-8 3.582032-8 8v64c0 4.417969 3.582031 8 8 8h80c4.417969 0 8-3.582031 8-8v-64c0-4.417968-3.582031-8-8-8zm-8 64h-64v-48h64zm0 0"/><path d="m232 397.503906h16v16h-16zm0 0"/></svg>