<svg viewBox="0 0 480.00817 480" xmlns="http://www.w3.org/2000/svg"><path d="m440.003906.00390625h-400c-22.082031.02734375-39.972656 17.91796875-39.99999975 39.99999975v320c.02734375 22.082032 17.91796875 39.972656 39.99999975 40h110.921875l-26.675781 32h-76.246094c-1.816406 0-3.582031.617188-5 1.753906l-40 32c-2.652344 2.121094-3.679687 5.6875-2.550781 8.894532 1.125 3.207031 4.152344 5.351562 7.550781 5.351562h464c3.398438 0 6.425782-2.144531 7.550782-5.351562 1.128906-3.207032.101562-6.773438-2.550782-8.894532l-40-32c-1.417968-1.136718-3.183594-1.753906-5-1.753906h-76.246094l-26.675781-32h110.921875c22.082032-.027344 39.972656-17.917968 40-40v-320c-.027344-22.082031-17.917968-39.972656-40-39.99999975zm9.191406 463.99999975h-418.382812l20-16h378.398438zm-114.269531-32h-189.84375l26.675781-32h136.492188zm129.078125-72c0 13.253906-10.746094 24-24 24h-400c-13.253906 0-24-10.746094-24-24v-320c0-13.253906 10.746094-24 24-24h400c13.253906 0 24 10.746094 24 24zm0 0"/><path d="m440.003906 32.003906h-400c-4.417968 0-8 3.582032-8 8v320c0 4.417969 3.582032 8 8 8h400c4.417969 0 8-3.582031 8-8v-320c0-4.417968-3.582031-8-8-8zm-8 16v48h-384v-48zm-384 88v-24h384v24zm384 16v128h-384v-128zm-384 200v-56h384v56zm0 0"/><path d="m84.453125 198.660156 4.414063-2.960937c19.910156-13.121094 45.113281-15.261719 66.953124-5.6875l49.953126 22.191406c2.042968.921875 4.261718 1.394531 6.503906 1.394531 6.058594-.007812 11.597656-3.433594 14.300781-8.859375l4.585937-9.160156-14.320312-7.148437-4.574219 9.175781-49.953125-22.203125c-26.851562-11.761719-57.832031-9.125-82.3125 7l-4.433594 2.953125zm0 0"/><path d="m204.003906 233.058594-46.265625-26.398438c-16.570312-9.253906-36.90625-8.550781-52.796875 1.824219l-2.671875 1.777344c-8.90625 5.914062-14.257812 15.890625-14.265625 26.582031v3.160156c0 2.121094.84375 4.15625 2.34375 5.65625l3.632813 3.640625c9.402343 9.445313 22.191406 14.738281 35.519531 14.703125h8.59375c4.664062.003906 9.304688-.648437 13.789062-1.9375l50.3125-14.398437c3.09375-.886719 5.351563-3.535157 5.742188-6.726563.386719-3.191406-1.175781-6.304687-3.964844-7.90625zm-56.472656 13.601562c-3.066406.886719-6.246094 1.339844-9.4375 1.34375h-8.59375c-9.082031.023438-17.800781-3.585937-24.207031-10.023437l-1.289063-1.289063c.050782-5.296875 2.71875-10.222656 7.128906-13.160156l2.671876-1.773438c10.832031-7.082031 24.703124-7.5625 36-1.25l29.773437 17.015626zm0 0"/><path d="m267.730469 213.605469c2.242187 0 4.457031-.472657 6.503906-1.386719l49.953125-22.207031c21.839844-9.558594 47.035156-7.414063 66.945312 5.695312l4.421876 2.960938 8.898437-13.3125-4.449219-2.953125c-24.484375-16.121094-55.464844-18.753906-82.320312-7l-49.945313 22.203125-4.535156-9.175781-14.320313 7.148437 4.585938 9.167969c2.699219 5.410156 8.21875 8.839844 14.261719 8.859375zm0 0"/><path d="m377.757812 210.21875-2.675781-1.773438c-15.890625-10.378906-36.226562-11.082031-52.796875-1.824218l-46.28125 26.4375c-2.789062 1.601562-4.351562 4.714844-3.964844 7.90625.386719 3.191406 2.648438 5.84375 5.742188 6.726562l50.3125 14.402344c4.492188 1.28125 9.148438 1.921875 13.820312 1.910156h8.59375c13.328126.035156 26.117188-5.261718 35.519532-14.710937l3.632812-3.632813c1.5-1.5 2.34375-3.535156 2.34375-5.65625v-3.160156c.011719-10.699219-5.339844-20.695312-14.246094-26.625zm-3.042968 27.761719c-6.40625 6.4375-15.125 10.046875-24.207032 10.023437h-8.59375c-3.179687 0-6.347656-.441406-9.40625-1.320312l-32.046874-9.160156 29.773437-17.015626c11.300781-6.3125 25.167969-5.832031 36 1.25l2.671875 1.773438c4.398438 2.945312 7.054688 7.871094 7.097656 13.160156zm0 0"/><path d="m64.003906 64.003906h16v16h-16zm0 0"/><path d="m96.003906 64.003906h16v16h-16zm0 0"/><path d="m128.003906 64.003906h16v16h-16zm0 0"/><path d="m400.003906 64.003906h16v16h-16zm0 0"/></svg>