<svg viewBox="0 0 480 480.00012" xmlns="http://www.w3.org/2000/svg"><path d="m16 16h111.054688l15.578124 31.152344c2.691407 5.4375 8.242188 8.871094 14.3125 8.847656h235.054688v16h16v-48c0-8.835938-7.164062-16-16-16h-232v16h232v16h-235.054688l-15.578124-31.152344c-2.691407-5.4375-8.242188-8.8710935-14.3125-8.847656h-111.054688c-8.835938 0-16 7.164062-16 16v280c0 8.835938 7.164062 16 16 16h272v-16h-272zm0 0"/><path d="m368 88c-55.542969.085938-102.632812 40.863281-110.65625 95.828125-8.019531 54.960937 25.453125 107.496094 78.65625 123.453125v20.71875h-8c-4.417969 0-8 3.582031-8 8v32c0 4.417969 3.582031 8 8 8h8v72c0 17.671875 14.328125 32 32 32s32-14.328125 32-32v-72h8c4.417969 0 8-3.582031 8-8v-32c0-4.417969-3.582031-8-8-8h-8v-20.71875c53.203125-15.957031 86.675781-68.492188 78.65625-123.453125-8.023438-54.964844-55.113281-95.742187-110.65625-95.828125zm16 360c0 8.835938-7.164062 16-16 16s-16-7.164062-16-16v-72h32zm16-88h-64v-16h64zm-16-32h-32v-17.28125c10.597656 1.707031 21.402344 1.707031 32 0zm-16-32c-53.019531 0-96-42.980469-96-96s42.980469-96 96-96 96 42.980469 96 96c-.058594 52.996094-43.003906 95.941406-96 96zm0 0"/><path d="m72 232h96c4.417969 0 8-3.582031 8-8v-21.191406l18.3125-22.886719c12.355469-15.453125 16.664062-35.839844 11.617188-54.96875-5.042969-19.125-18.847657-34.734375-37.21875-42.082031-31.261719-12.566406-66.175782-12.566406-97.4375 0-18.371094 7.347656-32.175782 22.957031-37.21875 42.089844-5.046876 19.128906-.738282 39.515624 11.617187 54.96875l18.328125 22.878906v21.191406c0 4.417969 3.582031 8 8 8zm-13.816406-62.070312c-9.191406-11.492188-12.402344-26.660157-8.648438-40.890626 3.75-14.230468 14.019532-25.84375 27.679688-31.3125 27.464844-11.042968 58.136718-11.042968 85.601562 0 13.664063 5.46875 23.929688 17.082032 27.679688 31.3125 3.753906 14.230469.542968 29.398438-8.648438 40.890626l-20.0625 25.070312c-1.148437 1.414062-1.777344 3.179688-1.785156 5v16h-16v-16h-16v16h-16v-16h-16v16h-16v-16c0-1.816406-.617188-3.582031-1.753906-5zm0 0"/><path d="m368 120c-44.183594 0-80 35.816406-80 80s35.816406 80 80 80 80-35.816406 80-80c-.046875-44.164062-35.835938-79.953125-80-80zm0 144c-35.347656 0-64-28.652344-64-64s28.652344-64 64-64 64 28.652344 64 64c-.039062 35.328125-28.671875 63.960938-64 64zm0 0"/><path d="m154.34375 176c2.261719 0 4.421875-.960938 5.9375-2.640625l4.710938-5.214844c12.390624-13.753906 16.4375-33.105469 10.59375-50.671875-.734376-2.199218-2.382813-3.972656-4.527344-4.863281-2.140625-.886719-4.558594-.804687-6.632813.230469l-32 16c-2.714843 1.355468-4.425781 4.128906-4.425781 7.160156v8c0 13.046875 10.265625 32 26.34375 32zm-10.34375-35.054688 18.167969-9.089843c.503906 9.398437-2.75 18.609375-9.046875 25.601562l-1.480469 1.597657c-4.566406-3.707032-7.34375-9.179688-7.640625-15.054688zm0 0"/><path d="m85.65625 176c16.078125 0 26.34375-18.953125 26.34375-32v-8c0-3.03125-1.710938-5.804688-4.425781-7.160156l-32-16c-2.074219-1.035156-4.492188-1.117188-6.632813-.230469-2.144531.890625-3.792968 2.664063-4.527344 4.863281-5.84375 17.566406-1.796874 36.917969 10.59375 50.671875l4.710938 5.214844c1.515625 1.679687 3.675781 2.640625 5.9375 2.640625zm10.34375-35.054688v3.054688c-.300781 5.871094-3.078125 11.339844-7.640625 15.046875l-1.480469-1.597656c-6.296875-6.992188-9.550781-16.203125-9.046875-25.601563zm0 0"/></svg>