<svg viewBox="0 0 480 480.12109" xmlns="http://www.w3.org/2000/svg"><path d="m320.0625 248c17.671875 0 32-14.328125 32-32s-14.328125-32-32-32-32 14.328125-32 32 14.328125 32 32 32zm0-48c8.835938 0 16 7.164062 16 16s-7.164062 16-16 16-16-7.164062-16-16 7.164062-16 16-16zm0 0"/><path d="m208.0625 80h-32c-8.835938 0-16 7.164062-16 16v32c0 4.417969 3.582031 8 8 8h48c4.417969 0 8-3.582031 8-8v-32c0-8.835938-7.164062-16-16-16zm0 40h-32v-24h32zm0 0"/><path d="m286.664062 270.488281c19.722657 12.167969 44.488282 12.699219 64.714844 1.386719 20.226563-11.316406 32.734375-32.699219 32.683594-55.875-.125-26.035156-15.90625-49.4375-40-59.3125v-36.6875h16c4.417969 0 8-3.582031 8-8v-32c0-4.417969-3.582031-8-8-8h-16v-16h8c4.417969 0 8-3.582031 8-8v-24c0-4.417969-3.582031-8-8-8h-8v-8c0-4.417969-3.582031-8-8-8h-32c-4.417969 0-8 3.582031-8 8v148.6875c-2.757812 1.140625-5.433594 2.476562-8 4v-24.6875c0-8.835938-7.164062-16-16-16h-16v-32c-.027344-22.082031-17.917969-39.972656-40-40h-48c-22.082031.027344-39.972656 17.917969-40 40v32h-16c-8.835938 0-16 7.164062-16 16v128c0 8.835938 7.164062 16 16 16h160c6.316406-.011719 12.039062-3.738281 14.601562-9.511719zm19.679688-100.472656c3.390625-1.007813 5.71875-4.125 5.71875-7.664063v-146.351562h16v8c0 4.417969 3.582031 8 8 8h8v8h-8c-4.417969 0-8 3.582031-8 8v32c0 4.417969 3.582031 8 8 8h16v16h-16c-4.417969 0-8 3.582031-8 8v50.351562c0 3.539063 2.328125 6.65625 5.71875 7.664063 22.839844 6.8125 37.21875 29.347656 33.777344 52.929687-3.441406 23.582032-23.664063 41.066407-47.496094 41.066407s-44.054688-17.484375-47.496094-41.066407c-3.441406-23.582031 10.9375-46.117187 33.777344-52.929687zm-194.28125-34.015625h24c4.417969 0 8-3.582031 8-8v-40c0-13.253906 10.746094-24 24-24h48c13.253906 0 24 10.746094 24 24v40c0 4.417969 3.582031 8 8 8h24v37.945312c-21.335938 24.03125-21.335938 60.214844 0 84.246094v5.808594h-160zm0 0"/><path d="m192.0625 152c-12.5625-.03125-23.976562 7.308594-29.15625 18.757812-5.179688 11.445313-3.164062 24.867188 5.15625 34.28125v34.960938c0 4.417969 3.582031 8 8 8h32c4.417969 0 8-3.582031 8-8v-34.960938c8.320312-9.414062 10.335938-22.835937 5.15625-34.28125-5.179688-11.449218-16.59375-18.789062-29.15625-18.757812zm10.640625 43.832031c-1.683594 1.519531-2.640625 3.679688-2.640625 5.945313v30.222656h-16v-30.222656c0-2.265625-.957031-4.425782-2.640625-5.945313-3.402344-2.992187-5.351563-7.300781-5.359375-11.832031 0-8.835938 7.164062-16 16-16s16 7.164062 16 16c-.007812 4.53125-1.957031 8.839844-5.359375 11.832031zm0 0"/><path d="m88.0625 347.054688-59.574219 29.785156c-2.714843 1.355468-4.425781 4.128906-4.425781 7.160156v33.136719c-15.601562 4.027343-25.777344 19.03125-23.746094 35.015625s15.632813 27.96875 31.746094 27.96875 29.714844-11.984375 31.746094-27.96875-8.144532-30.988282-23.746094-35.015625v-28.191407l59.574219-29.746093c2.726562-1.359375 4.441406-4.152344 4.425781-7.199219v-56h-16zm-40 100.945312c0 8.835938-7.164062 16-16 16s-16-7.164062-16-16 7.164062-16 16-16 16 7.164062 16 16zm0 0"/><path d="m160.0625 373.191406v-77.191406h-16v80c0 1.816406.617188 3.582031 1.753906 5l30.246094 37.808594v61.191406h16v-64c0-1.816406-.617188-3.582031-1.753906-5zm0 0"/><path d="m384.0625 392c-13.097656.023438-24.859375 8.03125-29.6875 20.207031l-34.3125-17.152343v-99.054688h-16v104c-.015625 3.046875 1.699219 5.839844 4.425781 7.199219l44.101563 22.046875c2.8125 16.730468 18.207031 28.34375 35.0625 26.460937 16.859375-1.886719 29.304687-16.617187 28.347656-33.554687-.953125-16.933594-14.976562-30.171875-31.9375-30.152344zm0 48c-8.835938 0-16-7.164062-16-16s7.164062-16 16-16 16 7.164062 16 16-7.164062 16-16 16zm0 0"/><path d="m439.671875 331.839844c.210937-1.269532.339844-2.554688.390625-3.839844.164062-15.859375-11.199219-29.496094-26.832031-32.195312-15.628907-2.703126-30.910157 6.332031-36.074219 21.328124-5.167969 14.996094 1.304688 31.527344 15.28125 39.027344s31.328125 3.753906 40.96875-8.839844l30.65625 24.519532v108.160156h16v-112c0-2.429688-1.101562-4.730469-3-6.246094zm-31.609375 12.160156c-8.835938 0-16-7.164062-16-16s7.164062-16 16-16 16 7.164062 16 16-7.164062 16-16 16zm0 0"/><path d="m284.503906 425.34375-34.402344-22.9375c10.375-7.046875 15.652344-19.523438 13.484376-31.878906-2.164063-12.351563-11.371094-22.289063-23.523438-25.390625v-49.136719h-16v49.136719c-15.070312 3.820312-25.179688 17.96875-23.90625 33.464843 1.273438 15.496094 13.558594 27.804688 29.050781 29.109376l42.855469 28.570312v43.71875h16v-48c0-2.675781-1.335938-5.171875-3.558594-6.65625zm-68.441406-49.34375c0-8.835938 7.164062-16 16-16s16 7.164062 16 16-7.164062 16-16 16-16-7.164062-16-16zm0 0"/></svg>