<svg viewBox="-88 0 480 480" xmlns="http://www.w3.org/2000/svg"><path d="m40 480h224c22.082031-.027344 39.972656-17.917969 40-40v-400c-.027344-22.082031-17.917969-39.9726562-40-40h-224c-22.082031.0273438-39.9726562 17.917969-40 40v400c.0273438 22.082031 17.917969 39.972656 40 40zm0-464h224c13.253906 0 24 10.746094 24 24v8h-272v-8c0-13.253906 10.746094-24 24-24zm-24 48h272v352h-272zm272 368v8c0 13.253906-10.746094 24-24 24h-224c-13.253906 0-24-10.746094-24-24v-8zm0 0"/><path d="m232 240h-16v-32c-.027344-22.082031-17.917969-39.972656-40-40h-48c-22.082031.027344-39.972656 17.917969-40 40v32h-16c-8.835938 0-16 7.164062-16 16v128c0 8.835938 7.164062 16 16 16h160c8.835938 0 16-7.164062 16-16v-128c0-8.835938-7.164062-16-16-16zm0 144h-160v-128h104c4.417969 0 8-3.582031 8-8v-32c0-8.835938-7.164062-16-16-16h-32c-8.835938 0-16 7.164062-16 16v24h-16v-32c0-13.253906 10.746094-24 24-24h48c13.253906 0 24 10.746094 24 24v40c0 4.417969 3.582031 8 8 8h24zm-96-144v-24h32v24zm0 0"/><path d="m152 272c-12.5625-.03125-23.976562 7.308594-29.15625 18.757812-5.179688 11.445313-3.164062 24.867188 5.15625 34.28125v34.960938c0 4.417969 3.582031 8 8 8h32c4.417969 0 8-3.582031 8-8v-34.960938c8.320312-9.414062 10.335938-22.835937 5.15625-34.28125-5.179688-11.449218-16.59375-18.789062-29.15625-18.757812zm10.648438 43.832031c-1.683594 1.515625-2.648438 3.675781-2.648438 5.945313v30.222656h-16v-30.222656c0-2.269532-.964844-4.429688-2.648438-5.945313-3.394531-2.996093-5.34375-7.304687-5.351562-11.832031 0-8.835938 7.164062-16 16-16s16 7.164062 16 16c-.007812 4.527344-1.957031 8.835938-5.351562 11.832031zm0 0"/><path d="m64 128h32v16h-32zm0 0"/><path d="m112 128h32v16h-32zm0 0"/><path d="m160 128h32v16h-32zm0 0"/><path d="m208 128h32v16h-32zm0 0"/><path d="m72 120h16v-8h8v-16h-8v-8h-16v8h-8v16h8zm0 0"/></svg>