<svg viewBox="0 -72 480 480" xmlns="http://www.w3.org/2000/svg"><path d="m424 264v-224c0-4.417969-3.582031-8-8-8h-352c-4.417969 0-8 3.582031-8 8v224c0 4.417969 3.582031 8 8 8h352c4.417969 0 8-3.582031 8-8zm-16-8h-336v-208h336zm0 0"/><path d="m472 288h-24.207031c5.292969-6.882812 8.175781-15.316406 8.207031-24v-224c-.027344-22.082031-17.917969-39.9726562-40-40h-352c-22.082031.0273438-39.972656 17.917969-40 40v224c.03125 8.683594 2.914062 17.117188 8.207031 24h-24.207031c-4.417969 0-8 3.582031-8 8 0 40 42.152344 40 56 40h368c13.847656 0 56 0 56-40 0-4.417969-3.582031-8-8-8zm-432-24v-224c0-13.253906 10.746094-24 24-24h352c13.253906 0 24 10.746094 24 24v224c0 13.253906-10.746094 24-24 24h-352c-13.253906 0-24-10.746094-24-24zm384 56h-368c-26.585938 0-36.238281-6.152344-39.03125-16h446.0625c-2.792969 9.847656-12.445312 16-39.03125 16zm0 0"/><path d="m176 240h128c8.835938 0 16-7.164062 16-16v-80c0-8.835938-7.164062-16-16-16h-16v-24c-.027344-22.082031-17.917969-39.972656-40-40h-16c-22.082031.027344-39.972656 17.917969-40 40v24h-16c-8.835938 0-16 7.164062-16 16v80c0 8.835938 7.164062 16 16 16zm32-136c0-13.253906 10.746094-24 24-24h16c13.253906 0 24 10.746094 24 24v24h-64zm-32 40h128v80h-128zm0 0"/><path d="m232 160h16v48h-16zm0 0"/></svg>