<svg viewBox="0 0 480 480" xmlns="http://www.w3.org/2000/svg"><path d="m384 0h-272c-4.800781 0-8 3.199219-8 8v152c0 4.800781 3.199219 8 8 8h136v-16h-128v-130.398438l124 72.796876c2.398438 1.601562 5.601562 1.601562 8 0l124-72.796876v18.398438h16v-32c0-4.800781-3.199219-8-8-8zm-136 78.398438-106.398438-62.398438h213.597657zm0 0"/><path d="m411.199219 97.601562c-.800781-.800781-.800781-1.601562-1.597657-2.402343 8-16.800781 2.398438-36-12.800781-46.398438l-8.800781 13.597657c7.199219 4.800781 11.199219 14.402343 8 23.203124-16-8-34.398438-8-49.601562.796876l-12.796876-12.796876c-1.601562-.800781-3.203124-1.601562-5.601562-1.601562h-16v16h12.800781l8.800781 8.800781s-.800781.800781-.800781.800781l-13.601562 15.199219c-3.199219 3.199219-5.597657 7.199219-8.800781 10.398438l-8.796876-8.800781c-1.601562-1.597657-3.203124-2.398438-5.601562-2.398438h-16v16h12.800781l8.800781 8.800781c-4 7.199219-8 15.199219-11.203124 23.199219h-18.398438c-3.199219 0-5.601562 1.601562-7.199219 4.800781l-8 16 14.398438 7.199219 5.601562-11.199219h8c-3.199219 12.800781-5.601562 26.398438-5.601562 40 0 4.800781 3.199219 8 8 8 13.601562 0 27.199219-1.601562 40-5.601562v8l-11.199219 5.601562 7.199219 14.398438 16-8c2.402343-1.597657 4.800781-4 4.800781-7.199219v-18.398438c8-3.203124 16-7.203124 23.199219-11.203124l8.800781 8.800781v12.800781h16v-16c0-2.398438-.800781-4-2.398438-5.601562l-8.800781-8.796876c4-2.402343 7.199219-5.601562 10.398438-8.800781l15.199219-13.601562s.800781-.800781.800781-.800781l8.800781 8.800781v12.800781h16v-16c0-2.398438-.800781-4-2.398438-5.601562l-12.800781-12.796876c8-14.402343 8.800781-32 2.398438-46.402343 9.601562-5.597657 21.601562-3.199219 28 6.402343l13.601562-8.800781c-11.199219-16.800781-32.800781-21.601562-49.601562-11.199219zm-80 25.597657 6.402343-7.199219 19.199219 19.199219-59.199219 59.199219c4-25.597657 16-51.199219 33.597657-71.199219zm49.601562 49.601562c-20 17.597657-44.800781 29.597657-71.199219 33.597657l59.199219-59.199219 19.199219 19.199219zm18.398438-16.800781-50.398438-50.398438c6.398438-5.601562 15.199219-8.800781 23.199219-8.800781 20 0 36 16 36 36 0 8-3.199219 16-8.800781 23.199219zm0 0"/><path d="m56 320v88c0 4.800781 3.199219 8 8 8h352c4.800781 0 8-3.199219 8-8v-200h-16v192h-336v-80zm0 0"/><path d="m472 432h-24c5.601562-7.199219 8-15.199219 8-24v-200h-16v200c0 13.601562-10.398438 24-24 24h-352c-13.601562 0-24-10.398438-24-24v-147.199219l74.398438 80.800781c3.203124 3.199219 8 3.199219 11.203124.796876 0 0 0 0 .796876-.796876l88-96c3.203124-3.203124 2.402343-8-.796876-11.203124-1.601562-1.597657-3.203124-2.398438-5.601562-2.398438h-40v-48h-16v56c0 4.800781 3.199219 8 8 8h29.601562l-69.601562 76-69.601562-76h29.601562c4.800781 0 8-3.199219 8-8v-240h-16v144h-8c-22.398438 0-40 17.601562-40 40v224c0 8.800781 3.199219 16.800781 8 24h-24c-4.800781 0-8 3.199219-8 8 0 40 42.398438 40 56 40h368c13.601562 0 56 0 56-40 0-4.800781-3.199219-8-8-8zm-408-272h8v72h-32v-48c0-13.601562 10.398438-24 24-24zm360 304h-368c-26.398438 0-36-6.398438-39.199219-16h446.398438c-3.199219 9.601562-12.800781 16-39.199219 16zm0 0"/><path d="m216 272h24v16h-24zm0 0"/><path d="m288 272h16v16h-16zm0 0"/><path d="m320 272h56v16h-56zm0 0"/><path d="m216 304h56v16h-56zm0 0"/><path d="m288 304h16v16h-16zm0 0"/><path d="m320 304h56v16h-56zm0 0"/><path d="m216 336h32v16h-32zm0 0"/><path d="m264 336h40v16h-40zm0 0"/><path d="m320 336h16v16h-16zm0 0"/><path d="m216 368h48v16h-48zm0 0"/><path d="m280 368h24v16h-24zm0 0"/><path d="m320 368h24v16h-24zm0 0"/><path d="m256 272h16v16h-16zm0 0"/><path d="m352 336h24v16h-24zm0 0"/><path d="m360 368h16v16h-16zm0 0"/></svg>