<svg id="icons" enable-background="new 0 0 64 64" height="512" viewBox="0 0 64 64" width="512" xmlns="http://www.w3.org/2000/svg"><path d="m46.005 32.36v-8.86c0-3.87 3.14-7 7-7 3.87 0 7 3.13 7 7v8.86c-.86-.841-1.88-1.53-3-2.021v-.01-6.829c0-2.21-1.79-4-4-4-2.2 0-4 1.79-4 4v6.83.01c-1.12.49-2.14 1.18-3 2.02z" fill="#d7e9ff"/><path d="m53.005 46.5c3.87 0 7-3.14 7-7 0-3.87-3.13-7-7-7-3.86 0-7 3.13-7 7 0 3.86 3.14 7 7 7zm7-14.14c1.85 1.81 3 4.34 3 7.14 0 5.52-4.47 10-10 10-5.52 0-10-4.48-10-10 0-2.8 1.15-5.33 3-7.14.86-.841 1.88-1.53 3-2.021 1.22-.54 2.58-.84 4-.84s2.78.3 4 .84c1.12.491 2.14 1.181 3 2.021z" fill="#94c1ff"/><path d="m52.995 36.49c1.1 0 2 .899 2 2 0 1.1-.9 2-2 2-1.101 0-2-.9-2-2s.9-2 2-2z" fill="#94c1ff"/><path d="m52.995 40.49c1.1 0 2-.9 2-2 0-1.101-.9-2-2-2-1.101 0-2 .899-2 2 0 1.1.9 2 2 2zm7.01-.99c0 3.86-3.13 7-7 7-3.86 0-7-3.14-7-7 0-3.87 3.14-7 7-7 3.87 0 7 3.13 7 7z" fill="#d7e9ff"/><path d="m4.995 30.49h24v6.01h-24z" fill="#fff"/><path d="m36.005 21.5v24h-3v-26h3z" fill="#fff"/><path d="m39.005 21.5v25c0 1.66-1.35 3-3 3-1.66 0-3-1.34-3-3v-1h3v-24z" fill="#94c1ff"/><path d="m33.005 46.5c0 1.66 1.34 3 3 3h-32.01c-1.66 0-3-1.34-3-3v-32h10l3 3h19.01v2 26zm-4.01-10v-6.01h-24v6.01z" fill="#d7e9ff"/><g fill="#116fff"><path d="m39 47.504c-.553 0-1-.447-1-1v-25.008c0-.553.447-1 1-1s1 .447 1 1v25.008c0 .553-.447 1-1 1z"/><path d="m33 47.504c-.553 0-1-.447-1-1v-29.008c0-.553.447-1 1-1s1 .447 1 1v29.008c0 .553-.447 1-1 1z"/><path d="m36 50.504c-2.206 0-4-1.794-4-4 0-.553.447-1 1-1s1 .447 1 1c0 1.103.897 2 2 2s2-.897 2-2c0-.553.447-1 1-1s1 .447 1 1c0 2.206-1.794 4-4 4z"/><path d="m36 50.504h-32.008c-.553 0-1-.447-1-1s.447-1 1-1h32.008c.553 0 1 .447 1 1s-.447 1-1 1z"/><path d="m.992 47.504c-.553 0-1-.447-1-1v-32.008c0-.553.447-1 1-1s1 .447 1 1v32.008c0 .553-.447 1-1 1z"/><path d="m33 18.496h-19.004c-.553 0-1-.447-1-1s.447-1 1-1h19.004c.553 0 1 .447 1 1s-.447 1-1 1z"/><path d="m3.992 50.504c-2.206 0-4-1.794-4-4 0-.553.447-1 1-1s1 .447 1 1c0 1.103.897 2 2 2 .553 0 1 .447 1 1s-.447 1-1 1z"/><path d="m10.996 15.496h-10.004c-.553 0-1-.447-1-1s.447-1 1-1h10.004c.553 0 1 .447 1 1s-.447 1-1 1z"/><path d="m13.996 18.496c-.256 0-.512-.098-.707-.293l-3-3c-.391-.391-.391-1.023 0-1.414s1.023-.391 1.414 0l3 3c.391.391.391 1.023 0 1.414-.195.195-.451.293-.707.293z"/><path d="m39 22.496h-3c-.553 0-1-.447-1-1s.447-1 1-1h3c.553 0 1 .447 1 1s-.447 1-1 1z"/><path d="m36 46.504c-.553 0-1-.447-1-1v-26.008c0-.553.447-1 1-1s1 .447 1 1v26.008c0 .553-.447 1-1 1z"/><path d="m36 46.504h-3c-.553 0-1-.447-1-1s.447-1 1-1h3c.553 0 1 .447 1 1s-.447 1-1 1z"/><path d="m36 20.496h-3c-.553 0-1-.447-1-1s.447-1 1-1h3c.553 0 1 .447 1 1s-.447 1-1 1z"/><path d="m28.99 37.496h-23.996c-.553 0-1-.447-1-1v-6.002c0-.553.447-1 1-1h23.996c.553 0 1 .447 1 1v6.002c0 .553-.447 1-1 1zm-22.996-2h21.996v-4.002h-21.996z"/><path d="m11.021 34.496c-.553 0-1.005-.447-1.005-1s.442-1 .994-1h.011c.552 0 1 .447 1 1s-.449 1-1 1z"/><path d="m14.021 34.496c-.553 0-1.005-.447-1.005-1s.442-1 .994-1h.011c.552 0 1 .447 1 1s-.449 1-1 1z"/><path d="m17.019 34.496c-.553 0-1.005-.447-1.005-1s.442-1 .994-1h.011c.552 0 1 .447 1 1s-.449 1-1 1z"/><path d="m20.019 34.496c-.553 0-1.005-.447-1.005-1s.442-1 .994-1h.011c.552 0 1 .447 1 1s-.449 1-1 1z"/><path d="m23.017 34.496c-.553 0-1.005-.447-1.005-1s.442-1 .994-1h.011c.552 0 1 .447 1 1s-.449 1-1 1z"/><path d="m53.008 50.496c-6.065 0-11-4.935-11-11s4.935-11 11-11 11 4.935 11 11-4.935 11-11 11zm0-20c-4.963 0-9 4.037-9 9s4.037 9 9 9 9-4.037 9-9-4.037-9-9-9z"/><path d="m53.008 47.496c-4.411 0-8-3.589-8-8s3.589-8 8-8 8 3.589 8 8-3.589 8-8 8zm0-14c-3.309 0-6 2.691-6 6s2.691 6 6 6 6-2.691 6-6-2.692-6-6-6z"/><path d="m60.008 24.496c-.553 0-1-.447-1-1 0-3.309-2.691-6-6-6s-6 2.691-6 6c0 .553-.447 1-1 1s-1-.447-1-1c0-4.411 3.589-8 8-8s8 3.589 8 8c0 .553-.447 1-1 1z"/><path d="m57.008 24.496c-.553 0-1-.447-1-1 0-1.654-1.346-3-3-3s-3 1.346-3 3c0 .553-.447 1-1 1s-1-.447-1-1c0-2.757 2.243-5 5-5s5 2.243 5 5c0 .553-.447 1-1 1z"/><path d="m49.008 31.328c-.553 0-1-.447-1-1v-6.832c0-.553.447-1 1-1s1 .447 1 1v6.832c0 .553-.447 1-1 1z"/><path d="m46.008 33.357c-.553 0-1-.447-1-1v-8.861c0-.553.447-1 1-1s1 .447 1 1v8.861c0 .553-.447 1-1 1z"/><path d="m57.008 31.328c-.553 0-1-.447-1-1v-6.832c0-.553.447-1 1-1s1 .447 1 1v6.832c0 .553-.447 1-1 1z"/><path d="m60.008 33.357c-.553 0-1-.447-1-1v-8.861c0-.553.447-1 1-1s1 .447 1 1v8.861c0 .553-.447 1-1 1z"/><path d="m52.994 41.49c-1.654 0-3-1.346-3-3s1.346-3 3-3 3 1.346 3 3-1.346 3-3 3zm0-4c-.552 0-1 .448-1 1s.448 1 1 1 1-.448 1-1-.448-1-1-1z"/><path d="m52.994 43.488c-.553 0-1-.447-1-1v-1.998c0-.553.447-1 1-1s1 .447 1 1v1.998c0 .553-.447 1-1 1z"/></g></svg>