<svg id="Livello_7" data-name="Livello 7" xmlns="http://www.w3.org/2000/svg" xmlns:xlink="http://www.w3.org/1999/xlink" viewBox="0 0 406.6 469.5"><defs><style>.cls-1{fill:url(#Sfumatura_senza_nome_31);}</style><linearGradient id="Sfumatura_senza_nome_31" x1="460.9" y1="249.51" x2="54.3" y2="249.51" gradientUnits="userSpaceOnUse"><stop offset="0" stop-color="#66f"/><stop offset="0.22" stop-color="#606fff"/><stop offset="0.57" stop-color="#4e87ff"/><stop offset="1" stop-color="#33adff"/></linearGradient></defs><title>logo</title><path class="cls-1" d="M257.6,14.76,54.3,132.13V366.89L257.6,484.26,460.9,366.89V132.13Zm119.64,367.7-45.43-26.3V216.67l45.43-26.22ZM82.63,286.15,127.86,260l120.52,69.78v52ZM312.81,78.86v52.45L192.29,200.89l-45.37-26.25ZM248.38,255.31v52.54l-165.87-96,45.42-26.22ZM73.3,228.44l35.59,20.61L73.3,269.59Zm194.08,25.43,45.43-26.23V419l-45.43-26.23Zm-10.74-15.73-45.37-26.26,166-95.83v52.46Zm139.6-121.4,35.33,20.4-35.33,20.4Zm-64.43,3.6V79.55l35.33,20.39Zm-64.43-37.2V42.35l35.34,20.4Zm-19,11L127.94,163.65,82.88,137.57,248.38,42ZM109,174.62,73.3,195.2V154Zm.11,148.72L73.3,344V302.7Zm19,11,120.32,69.47V457L82,360.92Zm139.32,80.44,36.31,21-36.31,21Zm64.43-36.64,35.77,20.71-35.77,20.66Zm64.43-37.22L432,361.61l-35.8,20.67Zm0-22V179.48l45.66-26.36V345.36Z" transform="translate(-54.3 -14.76)"/></svg>