<svg id="Layer_35" enable-background="new 0 0 64 64" height="512" viewBox="0 0 64 64" width="512" xmlns="http://www.w3.org/2000/svg" xmlns:xlink="http://www.w3.org/1999/xlink"><linearGradient id="SVGID_1_" gradientUnits="userSpaceOnUse" x1="32" x2="32" y1="63" y2="1"><stop offset="0" stop-color="#9f2fff"/><stop offset="1" stop-color="#0bb1d3"/></linearGradient><path d="m58 19h-3.184c-.314-.881-1.024-1.565-1.92-1.848l-1.227-9.188c-.441-3.97-3.786-6.964-7.781-6.964h-1.302l-.293.293c-1.101 1.101-2.564 1.707-4.122 1.707h-.343c-1.557 0-3.021-.606-4.122-1.707l-.292-.293h-1.302c-3.995 0-7.339 2.994-7.778 6.942l-1.23 9.21c-.896.283-1.606.967-1.92 1.848h-3.184c-2.757 0-5 2.243-5 5v10.273c-3.022 2.181-5 5.723-5 9.727 0 1.914.462 3.717 1.262 5.324l-7.14 7.141c-.724.723-1.122 1.683-1.122 2.707 0 2.11 1.717 3.828 3.829 3.828 1.022 0 1.983-.398 2.707-1.121l7.14-7.141c1.606.8 3.41 1.262 5.324 1.262 3.032 0 5.796-1.139 7.911-3h1.089v4h-1c-2.757 0-5 2.243-5 5v1h30v-1c0-2.757-2.243-5-5-5h-1v-4h11c2.757 0 5-2.243 5-5v-24c0-2.757-2.243-5-5-5zm-34 6h5.617c-2.127 1.06-4.067 2.502-5.679 4.315l-2.021 2.273c-.144.162-.263.34-.375.522-.506-.065-1.018-.11-1.542-.11-.338 0-.669.023-1 .051v-7.051zm1.433 5.644c1.071-1.205 2.31-2.22 3.651-3.06-1.306 1.808-2.084 4.021-2.084 6.416 0 .094.008.187.011.281-1-.723-2.111-1.301-3.309-1.69zm3.938 5.88c-.238-.817-.371-1.663-.371-2.524 0-4.644 3.536-8.476 8.056-8.95.315-.017.627-.05.944-.05s.629.033.944.05c4.52.474 8.056 4.306 8.056 8.95s-3.536 8.476-8.056 8.95c-.315.017-.627.05-.944.05-2.145 0-4.229-.419-6.213-1.21-.368-1.965-1.214-3.762-2.416-5.266zm17.546-8.94c1.341.84 2.579 1.855 3.651 3.06l2.021 2.273c.265.299.411.684.411 1.083s-.146.784-.412 1.083l-2.021 2.273c-1.071 1.205-2.31 2.221-3.651 3.061 1.305-1.808 2.084-4.021 2.084-6.417 0-2.395-.778-4.608-2.083-6.416zm-14.917 16.42c1.932.653 3.941.996 6 .996.39 0 .774-.022 1.154-.062 4.943-.305 9.599-2.53 12.909-6.254l2.02-2.272c.591-.666.917-1.522.917-2.412 0-.891-.326-1.747-.917-2.412l-2.021-2.273c-1.611-1.813-3.552-3.255-5.679-4.315h5.617 5v22h-25.395c.249-.96.394-1.96.395-2.996zm-6.858-27.004.267-2h1.973l-1 2zm4.476-2h1.764l-1 2h-1.764zm4 0h1.764l-1 2h-1.764zm4 0h1.764l-1 2h-1.764zm4 0h1.764l-1 2h-1.764zm4 0h1.764l-1 2h-1.764zm4 0h.972l.267 2h-2.239zm-17.506-12h.49c1.438 1.293 3.278 2 5.227 2h.343c1.949 0 3.789-.707 5.227-2h.49c2.974 0 5.464 2.229 5.795 5.207l.64 4.793h-24.648l.643-4.815c.328-2.956 2.819-5.185 5.793-5.185zm-9.112 17c0-.551.449-1 1-1h28c.551 0 1 .449 1 1v2c0 .551-.449 1-1 1h-28c-.551 0-1-.449-1-1zm-8 4c0-1.654 1.346-3 3-3h3v1c0 .352.072.686.184 1h-2.184c-1.103 0-2 .897-2 2v7.395c-.693.179-1.361.416-2 .71zm-8.878 36.465c-.346.345-.805.535-1.293.535-1.009 0-1.829-.82-1.829-1.828 0-.481.195-.952.536-1.293l6.798-6.799c.726.989 1.597 1.86 2.586 2.586zm13.878-6.465c-5.514 0-10-4.486-10-10s4.486-10 10-10 10 4.486 10 10-4.486 10-10 10zm30.829 7h-25.658c.413-1.164 1.525-2 2.829-2h20c1.304 0 2.416.836 2.829 2zm-5.829-4h-14v-4h14zm16-9c0 1.654-1.346 3-3 3h-28.273c.451-.625.842-1.293 1.168-2h26.105c1.103 0 2-.897 2-2v-22c0-1.103-.897-2-2-2h-2.184c.112-.314.184-.648.184-1v-1h3c1.654 0 3 1.346 3 3zm-23-7c3.86 0 7-3.141 7-7 0-3.86-3.14-7-7-7s-7 3.14-7 7c0 3.859 3.14 7 7 7zm0-12c2.757 0 5 2.243 5 5s-2.243 5-5 5-5-2.243-5-5 2.243-5 5-5zm0 8c1.654 0 3-1.346 3-3s-1.346-3-3-3-3 1.346-3 3 1.346 3 3 3zm0-4c.551 0 1 .448 1 1s-.449 1-1 1-1-.448-1-1 .449-1 1-1zm-18 3c-4.411 0-8 3.589-8 8s3.589 8 8 8 8-3.589 8-8-3.589-8-8-8zm0 14c-3.309 0-6-2.691-6-6s2.691-6 6-6 6 2.691 6 6-2.691 6-6 6z" fill="url(#SVGID_1_)"/></svg>