<svg id="icons" enable-background="new 0 0 64 64" height="512" viewBox="0 0 64 64" width="512" xmlns="http://www.w3.org/2000/svg"><path d="m35 36.69c1.08.38 2.08.91 3 1.57 3.03 2.18 5 5.729 5 9.75 0 6.621-5.37 11.99-12 11.99s-12-5.369-12-11.989c0-4.021 1.97-7.57 5-9.75.92-.66 1.92-1.19 3-1.57 1.25-.44 2.6-.68 4-.68s2.75.239 4 .679zm4 11.321c0-4.42-3.58-8-8-8s-8 3.58-8 8c0 4.409 3.58 7.989 8 7.989s8-3.58 8-7.989z" fill="#94c1ff"/><path d="m38 30.011v8.25c-.92-.66-1.92-1.19-3-1.57v-6.68c0-.73-.2-1.42-.54-2h3.25c.19.63.29 1.3.29 2z" fill="#fff"/><path d="m31 40.011c4.42 0 8 3.58 8 8 0 4.409-3.58 7.989-8 7.989s-8-3.58-8-7.989c0-4.42 3.58-8 8-8z" fill="#d7e9ff"/><path d="m24.29 28.011c.86-2.891 3.53-5 6.71-5 .83 0 1.5.67 1.5 1.5s-.67 1.5-1.5 1.5c-1.48 0-2.77.8-3.46 2-.34.59-.54 1.27-.54 2v6.68c-1.08.38-2.08.91-3 1.57v-8.25c0-.691.1-1.37.29-2z" fill="#fff"/><path d="m9.01 12.011h45.98v7.989h-45.98z" fill="#fff"/><path d="m37.71 28.011h-3.25-6.92c.69-1.2 1.979-2 3.46-2 .83 0 1.5-.67 1.5-1.5s-.67-1.5-1.5-1.5c-3.18 0-5.85 2.109-6.71 5h-23.29v-24.011h62v24.011zm17.28-8.011v-7.989h-45.98v7.989z" fill="#d7e9ff"/><g fill="#116fff"><path d="m54.992 21.002h-45.984c-.553 0-1-.447-1-1v-7.998c0-.553.447-1 1-1h45.984c.553 0 1 .447 1 1v7.998c0 .553-.447 1-1 1zm-44.984-2h43.984v-5.998h-43.984z"/><path d="m63 29.008c-.553 0-1-.447-1-1v-23.01h-60v23.01c0 .553-.447 1-1 1s-1-.447-1-1v-24.01c0-.553.447-1 1-1h62c.553 0 1 .447 1 1v24.01c0 .553-.447 1-1 1z"/><path d="m18 18.002c-.256 0-.512-.098-.707-.293l-2-2c-.391-.391-.391-1.023 0-1.414s1.023-.391 1.414 0l2 2c.391.391.391 1.023 0 1.414-.195.195-.451.293-.707.293z"/><path d="m16 18.002c-.256 0-.512-.098-.707-.293-.391-.391-.391-1.023 0-1.414l2-2c.391-.391 1.023-.391 1.414 0s.391 1.023 0 1.414l-2 2c-.195.195-.451.293-.707.293z"/><path d="m23 18.002c-.256 0-.512-.098-.707-.293l-2-2c-.391-.391-.391-1.023 0-1.414s1.023-.391 1.414 0l2 2c.391.391.391 1.023 0 1.414-.195.195-.451.293-.707.293z"/><path d="m21 18.002c-.256 0-.512-.098-.707-.293-.391-.391-.391-1.023 0-1.414l2-2c.391-.391 1.023-.391 1.414 0s.391 1.023 0 1.414l-2 2c-.195.195-.451.293-.707.293z"/><path d="m28 18.002c-.256 0-.512-.098-.707-.293l-2-2c-.391-.391-.391-1.023 0-1.414s1.023-.391 1.414 0l2 2c.391.391.391 1.023 0 1.414-.195.195-.451.293-.707.293z"/><path d="m26 18.002c-.256 0-.512-.098-.707-.293-.391-.391-.391-1.023 0-1.414l2-2c.391-.391 1.023-.391 1.414 0s.391 1.023 0 1.414l-2 2c-.195.195-.451.293-.707.293z"/><path d="m33 18.002c-.256 0-.512-.098-.707-.293l-2-2c-.391-.391-.391-1.023 0-1.414s1.023-.391 1.414 0l2 2c.391.391.391 1.023 0 1.414-.195.195-.451.293-.707.293z"/><path d="m31 18.002c-.256 0-.512-.098-.707-.293-.391-.391-.391-1.023 0-1.414l2-2c.391-.391 1.023-.391 1.414 0s.391 1.023 0 1.414l-2 2c-.195.195-.451.293-.707.293z"/><path d="m38 18.002c-.256 0-.512-.098-.707-.293l-2-2c-.391-.391-.391-1.023 0-1.414s1.023-.391 1.414 0l2 2c.391.391.391 1.023 0 1.414-.195.195-.451.293-.707.293z"/><path d="m36 18.002c-.256 0-.512-.098-.707-.293-.391-.391-.391-1.023 0-1.414l2-2c.391-.391 1.023-.391 1.414 0s.391 1.023 0 1.414l-2 2c-.195.195-.451.293-.707.293z"/><path d="m43 18.002c-.256 0-.512-.098-.707-.293l-2-2c-.391-.391-.391-1.023 0-1.414s1.023-.391 1.414 0l2 2c.391.391.391 1.023 0 1.414-.195.195-.451.293-.707.293z"/><path d="m41 18.002c-.256 0-.512-.098-.707-.293-.391-.391-.391-1.023 0-1.414l2-2c.391-.391 1.023-.391 1.414 0s.391 1.023 0 1.414l-2 2c-.195.195-.451.293-.707.293z"/><path d="m48 18.002c-.256 0-.512-.098-.707-.293l-2-2c-.391-.391-.391-1.023 0-1.414s1.023-.391 1.414 0l2 2c.391.391.391 1.023 0 1.414-.195.195-.451.293-.707.293z"/><path d="m46 18.002c-.256 0-.512-.098-.707-.293-.391-.391-.391-1.023 0-1.414l2-2c.391-.391 1.023-.391 1.414 0s.391 1.023 0 1.414l-2 2c-.195.195-.451.293-.707.293z"/><path d="m31 61.002c-7.168 0-12.999-5.831-12.999-12.998 0-7.168 5.831-13 12.999-13s12.999 5.832 12.999 13c0 7.167-5.831 12.998-12.999 12.998zm0-23.998c-6.064 0-10.999 4.935-10.999 11 0 6.064 4.935 10.998 10.999 10.998s10.999-4.934 10.999-10.998c0-6.066-4.935-11-10.999-11z"/><path d="m38 31.004c-.553 0-1-.447-1-1 0-.587-.084-1.166-.249-1.72-.158-.529.143-1.086.672-1.244.529-.157 1.087.143 1.244.672.221.74.333 1.511.333 2.292 0 .553-.447 1-1 1z"/><path d="m24 31.004c-.553 0-1-.447-1-1 0-4.411 3.589-8 8-8 .553 0 1 .447 1 1s-.447 1-1 1c-3.309 0-6 2.691-6 6 0 .553-.447 1-1 1z"/><path d="m35 31.004c-.553 0-1-.447-1-1 0-.527-.139-1.046-.401-1.498-.277-.479-.114-1.09.363-1.367.479-.277 1.09-.113 1.367.363.439.758.671 1.623.671 2.502 0 .553-.447 1-1 1z"/><path d="m27 31.004c-.553 0-1-.447-1-1 0-2.757 2.243-5 5-5 .553 0 1 .447 1 1s-.447 1-1 1c-1.654 0-3 1.346-3 3 0 .553-.447 1-1 1z"/><path d="m27 37.688c-.553 0-1-.447-1-1v-6.684c0-.553.447-1 1-1s1 .447 1 1v6.684c0 .552-.447 1-1 1z"/><path d="m24 39.258c-.553 0-1-.447-1-1v-8.254c0-.553.447-1 1-1s1 .447 1 1v8.254c0 .553-.447 1-1 1z"/><path d="m35 37.688c-.553 0-1-.447-1-1v-6.684c0-.553.447-1 1-1s1 .447 1 1v6.684c0 .552-.447 1-1 1z"/><path d="m38 39.258c-.553 0-1-.447-1-1v-8.254c0-.553.447-1 1-1s1 .447 1 1v8.254c0 .553-.447 1-1 1z"/><path d="m31 57.002c-4.962 0-8.999-4.036-8.999-8.998 0-4.963 4.037-9 8.999-9s8.999 4.037 8.999 9c0 4.962-4.037 8.998-8.999 8.998zm0-15.998c-3.859 0-6.999 3.141-6.999 7 0 3.858 3.14 6.998 6.999 6.998s6.999-3.14 6.999-6.998c0-3.859-3.14-7-6.999-7z"/><path d="m31 27.006c-.553 0-1-.447-1-1s.447-1 1-1c.276 0 .501-.226.501-.502 0-.275-.225-.5-.501-.5-.553 0-1-.447-1-1s.447-1 1-1c1.379 0 2.501 1.121 2.501 2.5 0 1.38-1.122 2.502-2.501 2.502z"/><path d="m24.29 29.008h-23.29c-.553 0-1-.447-1-1s.447-1 1-1h23.29c.553 0 1 .447 1 1s-.447 1-1 1z"/><path d="m63 29.008h-35.461c-.553 0-1-.447-1-1s.447-1 1-1h35.461c.553 0 1 .447 1 1s-.447 1-1 1z"/><path d="m30 51.002c-.256 0-.512-.098-.707-.293l-1.999-2c-.391-.391-.391-1.023 0-1.414s1.023-.391 1.414 0l1.999 2c.391.391.391 1.023 0 1.414-.195.195-.451.293-.707.293z"/><path d="m30 51.002c-.256 0-.512-.098-.707-.293-.391-.391-.391-1.023 0-1.414l4-4c.391-.391 1.023-.391 1.414 0s.391 1.023 0 1.414l-4 4c-.195.195-.451.293-.707.293z"/></g></svg>