<svg id="Layer_35" enable-background="new 0 0 64 64" height="512" viewBox="0 0 64 64" width="512" xmlns="http://www.w3.org/2000/svg" xmlns:xlink="http://www.w3.org/1999/xlink"><linearGradient id="SVGID_1_" gradientUnits="userSpaceOnUse" x1="32" x2="32" y1="63" y2="1"><stop offset="0" stop-color="#9f2fff"/><stop offset="1" stop-color="#0bb1d3"/></linearGradient><path d="m23 27h2v5.838c0 1.192-.97 2.162-2.162 2.162-.932 0-1.757-.595-2.052-1.479l-.507-1.521h-.559l-.507 1.521c-.294.884-1.119 1.479-2.051 1.479-1.192 0-2.162-.97-2.162-2.162v-5.838h2v5.838c0 .16.267.201.316.051l.963-2.889h3.441l.963 2.889c.05.15.317.109.317-.051zm12 5.838c0 .16-.267.201-.316.051l-.963-2.889h-3.441l-.963 2.889c-.051.15-.317.109-.317-.051v-5.838h-2v5.838c0 1.192.97 2.162 2.162 2.162.932 0 1.757-.595 2.052-1.479l.507-1.521h.559l.507 1.521c.294.884 1.119 1.479 2.051 1.479 1.192 0 2.162-.97 2.162-2.162v-5.838h-2zm7.279-2.838-.963 2.889c-.049.15-.316.109-.316-.051v-5.838h-2v5.838c0 1.192.97 2.162 2.162 2.162.932 0 1.757-.595 2.052-1.479l.507-1.521h.559l.507 1.521c.294.884 1.119 1.479 2.051 1.479 1.192 0 2.162-.97 2.162-2.162v-5.838h-2v5.838c0 .16-.267.201-.316.051l-.963-2.889zm20.721 5v14c0 2.757-2.243 5-5 5h-5v2.362l-3.433 4.119c-1.334 1.601-3.294 2.519-5.377 2.519h-9.19c-3.467 0-6.525-1.775-8.32-4.462l-2.749 2.744-2.465-1.491c-.331.154-.663.293-.995.416l-.687 2.793h-7.568l-.687-2.794c-.332-.123-.664-.262-.995-.416l-2.466 1.492-5.352-5.352 1.493-2.465c-.154-.33-.293-.662-.417-.995l-2.792-.686v-7.568l2.794-.687c.123-.333.262-.665.417-.995l-1.493-2.465 2.633-2.633c-2.734-3.782-4.351-8.423-4.351-13.436 0-12.683 10.318-23 23-23 12.369 0 22.484 9.815 22.976 22.066 3.623.444 6.5 3.315 6.954 6.934h4.07c2.757 0 5 2.243 5 5zm-17-10h-26.979-1.021c-3.309 0-6 2.691-6 6s2.691 6 6 6h28c3.309 0 6-2.691 6-6s-2.691-6-6-6zm-7.306 14h-6.241c-1.699 2.528-3.568 4.43-5.069 5.725 4.265-.691 8.207-2.681 11.31-5.725zm-15.784 7.972c-.703-.033-1.397-.101-2.082-.196.102.4.172.807.172 1.224 0 2.757-2.243 5-5 5s-5-2.243-5-5c0-1.558.72-2.958 1.867-3.883-.61-.339-1.204-.703-1.779-1.094-1.333 1.312-2.088 3.088-2.088 4.977 0 3.859 3.14 7 7 7s7-3.141 7-7c0-.336-.036-.681-.09-1.028zm-7.824-32.972c-1.127 2.55-1.929 5.547-2.061 9h4.975 1.021 15.954c-.132-3.453-.934-6.45-2.061-9zm16.837-2c-2.757-4.974-6.567-7.879-7.923-8.807-1.356.928-5.166 3.833-7.923 8.807zm10.539 2h-7.333c1.026 2.586 1.729 5.584 1.847 9h7.974c-.155-3.243-1.021-6.303-2.488-9zm-29.591 0h-7.333c-1.467 2.697-2.333 5.757-2.487 9h7.974c.117-3.416.819-6.414 1.846-9zm-9.82 11c.154 3.243 1.02 6.303 2.487 9h5.051c-.377-.927-.589-1.939-.589-3 0-2.39 1.059-4.533 2.726-6zm3.74 11c3.177 4.543 8.102 7.759 13.793 8.697-1.596-1.381-3.599-3.44-5.372-6.208-1.363-.509-2.551-1.374-3.447-2.489zm23.211 3h-12.002c-.002 0-.004 0-.006 0 2.385 3.175 4.946 5.093 6.005 5.81 1.059-.72 3.623-2.647 6.003-5.81zm-11.526 7.325c-1.19-.295-2.345-.679-3.455-1.151-1.2.414-2.021 1.532-2.021 2.826 0 1.654 1.346 3 3 3s3-1.346 3-3c0-.601-.191-1.182-.524-1.675zm8.962-43.018c2.058 1.77 4.782 4.639 6.798 8.693h6.973c-3.173-4.537-8.089-7.751-13.771-8.693zm-20.647 8.693h6.973c2.016-4.054 4.74-6.923 6.798-8.693-5.682.942-10.598 4.156-13.771 8.693zm18.919 44.679c-.453-1.14-.71-2.379-.71-3.679 0-2.355.823-4.518 2.19-6.229-.745.104-1.499.173-2.258.203.041.345.068.688.068 1.026 0 4.963-4.038 9-9 9s-9-4.037-9-9c0-2.328.895-4.518 2.477-6.181-1.039-.849-2-1.788-2.877-2.803l-1.359 1.359 1.255 2.074-.259.498c-.296.571-.54 1.152-.722 1.727l-.17.534-2.345.576v4.432l2.345.577.17.534c.182.574.425 1.155.722 1.727l.259.498-1.255 2.074 3.134 3.133 2.073-1.255.499.259c.574.298 1.154.541 1.725.722l.536.169.576 2.346h4.432l.577-2.347.536-.169c.571-.181 1.151-.424 1.725-.722l.499-.259 2.074 1.256zm9.29 4.321h2v-16h-2c-4.411 0-8 3.589-8 8s3.589 8 8 8zm16-6v-4h-4c-1.103 0-2 .897-2 2s.897 2 2 2zm-1.135-6-1.833-2.2c-.953-1.144-2.353-1.8-3.841-1.8h-5.191v7h4.142c.447-1.721 2-3 3.858-3zm0 8h-2.865c-1.858 0-3.411-1.279-3.858-3h-4.142v7h5.19c1.488 0 2.888-.656 3.841-1.8zm11.135-22c0-1.654-1.346-3-3-3h-4.069c-.495 3.94-3.859 7-7.931 7h-4.575c-1.325 1.538-2.823 2.881-4.461 4h7.226c2.083 0 4.043.918 5.377 2.519l3.433 4.119v2.362h5c1.654 0 3-1.346 3-3zm-43-17v-2h-2v2zm4-2h-2v2h2zm4 0h-2v2h2zm0-6h2v-2h-2zm-4 0h2v-2h-2z" fill="url(#SVGID_1_)"/></svg>