<svg id="Layer_35" enable-background="new 0 0 64 64" height="512" viewBox="0 0 64 64" width="512" xmlns="http://www.w3.org/2000/svg" xmlns:xlink="http://www.w3.org/1999/xlink"><linearGradient id="SVGID_1_" gradientUnits="userSpaceOnUse" x1="32" x2="32" y1="63" y2="1"><stop offset="0" stop-color="#9f2fff"/><stop offset="1" stop-color="#0bb1d3"/></linearGradient><path d="m14 46c-1.563 0-3.04.754-3.979 2h-5.021v6h5.021c.939 1.246 2.416 2 3.979 2 2.757 0 5-2.243 5-5s-2.243-5-5-5zm0 8c-1.068 0-2.033-.562-2.581-1.503l-.289-.497h-4.13v-2h4.13l.289-.497c.548-.941 1.513-1.503 2.581-1.503 1.654 0 3 1.346 3 3s-1.346 3-3 3zm45-22.899v-18.101h-6.763c-2.18-7.1-8.739-12-16.237-12-6.857 0-13.018 4.139-15.654 10.405-.751-.266-1.546-.405-2.346-.405-2.772 0-5.269 1.672-6.381 4.154-.526-.096-1.066-.154-1.619-.154-4.963 0-9 4.037-9 9s4.037 9 9 9h19v2.101c-2.279.465-4 2.484-4 4.899v3h-2c0-1.654-1.346-3-3-3h-16c-1.654 0-3 1.346-3 3v16c0 1.654 1.346 3 3 3h16c1.654 0 3-1.346 3-3h2.101c.465 2.279 2.484 4 4.899 4h28c2.757 0 5-2.243 5-5v-22c0-2.414-1.721-4.434-4-4.899zm-2-.101h-7.528c-1.905 0-3.618 1.059-4.472 2.764l-.618 1.236h-13.382v-20h26zm-47 0c-3.859 0-7-3.141-7-7s3.141-7 7-7 7 3.141 7 7h2c0-3.702-2.247-6.886-5.448-8.267.842-1.643 2.555-2.733 4.448-2.733.844 0 1.679.216 2.417.623l1.038.574.39-1.121c2.096-6.026 7.785-10.076 14.155-10.076 6.409 0 12.052 4.052 14.146 10h-21.146v18zm20 6h15.618l1.171-2.342c.512-1.022 1.54-1.658 2.683-1.658h8.528c1.654 0 3 1.346 3 3v3h-33.816c.414-1.161 1.514-2 2.816-2zm-7 16v-4h2v4zm2-8v2h-2v-2zm-4 14c0 .552-.448 1-1 1h-16c-.552 0-1-.448-1-1v-16c0-.552.448-1 1-1h16c.552 0 1 .448 1 1zm2-4h8c2.206 0 4-1.794 4-4s-1.794-4-4-4v-2c3.309 0 6 2.691 6 6s-2.691 6-6 6h-8zm35 6h-28c-1.302 0-2.402-.839-2.816-2h3.816c4.411 0 8-3.589 8-8s-3.589-8-8-8h-2v6h2c1.103 0 2 .897 2 2s-.897 2-2 2h-4v-12h34v17c0 1.654-1.346 3-3 3zm1-24h-2v-2h2zm-4 0h-2v-2h2zm-4 0h-2v-2h2zm4-20h-22v8h22zm-2 6h-18v-4h18zm-10 10h-10v-2h10zm-8-4h-2v-2h2zm2 0v-2h2v2zm4-2h14v2h-14zm-18 0h2v2h-2zm-4 0h2v2h-2zm-9 0h7v2h-7c-2.757 0-5-2.243-5-5s2.243-5 5-5v2c-1.654 0-3 1.346-3 3s1.346 3 3 3zm22.333-19.375-.666-1.885c.702-.249 1.432-.438 2.168-.561l.33 1.973c-.622.105-1.238.264-1.832.473zm3.667-.625v-2c4.172 0 8.12 2.024 10.56 5.416l-1.623 1.168c-2.066-2.87-5.407-4.584-8.937-4.584zm21 50h2v2h-2zm-4 0h2v2h-2zm-4 0h2v2h-2zm0-4h10v2h-10z" fill="url(#SVGID_1_)"/>
</svg>
