<svg id="icons" enable-background="new 0 0 64 64" height="512" viewBox="0 0 64 64" width="512" xmlns="http://www.w3.org/2000/svg"><path d="m18.5 55.38c.51.3 1.04.57 1.56.84-1.47 1.7-3.64 2.78-6.06 2.78-1.07 0-2.09-.21-3.02-.59.01-.13.02-.27.02-.41 0-2.68-2.1-4.86-4.75-4.99-.16-.64-.25-1.31-.25-2.01 0-2.27.94-4.32 2.46-5.77 2.3 4.09 5.69 7.64 10.04 10.15z" fill="#94c1ff"/><path d="m6 11c2.67 0 4.86-2.1 4.99-4.74.64-.17 1.32-.26 2.01-.26 2.27 0 4.32.95 5.77 2.47-4.1 2.29-7.65 5.68-10.16 10.03-.301.51-.57 1.04-.83 1.56-1.7-1.46-2.78-3.63-2.78-6.06 0-1.06.21-2.08.59-3.01v-.01c.13.01.27.02.41.02z" fill="#94c1ff"/><path d="m58 53c.14 0 .28.01.41.02 2.57.21 4.59 2.36 4.59 4.98 0 2.76-2.24 5-5 5s-5-2.24-5-5c0-.08 0-.17.01-.25.13-2.65 2.31-4.75 4.99-4.75z" fill="#d7e9ff"/><path d="m58 1c2.76 0 5 2.24 5 5s-2.24 5-5 5c-.08 0-.17 0-.25-.01-2.65-.13-4.75-2.31-4.75-4.99 0-.14.01-.28.02-.41.21-2.57 2.36-4.59 4.98-4.59z" fill="#d7e9ff"/><path d="m6.25 53.01c2.65.13 4.75 2.31 4.75 4.99 0 .14-.01.28-.02.41-.21 2.57-2.36 4.59-4.98 4.59-2.76 0-5-2.24-5-5s2.24-5 5-5c.08 0 .17 0 .25.01z" fill="#d7e9ff"/><path d="m59 50c0 1.07-.21 2.09-.59 3.02-.13-.01-.27-.02-.41-.02-2.68 0-4.86 2.1-4.99 4.75-.64.17-1.32.25-2.01.25-2.27 0-4.32-.94-5.77-2.46 4.09-2.3 7.64-5.69 10.149-10.04.3-.51.57-1.04.84-1.56 1.701 1.47 2.781 3.64 2.781 6.06z" fill="#94c1ff"/><path d="m53 6c0 2.68 2.1 4.86 4.75 4.99v.01c.16.64.25 1.31.25 2 0 2.27-.95 4.32-2.46 5.78-2.29-4.1-5.68-7.64-10.04-10.16-.51-.3-1.04-.57-1.56-.84 1.47-1.7 3.64-2.78 6.06-2.78 1.07 0 2.08.21 3.02.59-.01.13-.02.27-.02.41z" fill="#94c1ff"/><path d="m11 6c0 .09 0 .18-.01.26-.13 2.64-2.32 4.74-4.99 4.74-.14 0-.28-.01-.41-.02-2.57-.21-4.59-2.36-4.59-4.98 0-2.76 2.24-5 5-5s5 2.24 5 5z" fill="#d7e9ff"/><path d="m32 31.08v14.92c-4.97 0-9-4.03-9-9v-3-3h9z" fill="#94c1ff"/><path d="m41 34v-3c0-1.19-.23-2.33-.65-3.36-.68-1.689-1.859-3.12-3.35-4.12v-.01-.51c0-2.05-1.24-3.81-3-4.58-.61-.27-1.29-.42-2-.42s-1.39.15-2 .42c-1.76.771-3 2.53-3 4.58v.51.01c-2.41 1.61-4 4.36-4 7.48v3 3c0 4.97 4.03 9 9 9 3.78 0 7.02-2.33 8.35-5.64.42-1.04.65-2.17.65-3.36zm14.54-15.22c4.229 7.55 4.729 16.96.68 25.16-.27.52-.54 1.05-.84 1.56-2.51 4.35-6.06 7.74-10.149 10.04-7.551 4.23-16.961 4.73-25.171.68-.52-.27-1.05-.54-1.56-.84-4.35-2.51-7.74-6.06-10.04-10.149-4.23-7.551-4.73-16.961-.68-25.171.26-.52.529-1.05.83-1.56 2.51-4.35 6.06-7.74 10.159-10.03 7.551-4.24 16.961-4.74 25.171-.69.52.27 1.05.54 1.56.84 4.36 2.52 7.75 6.06 10.04 10.16z" fill="#d7e9ff"/><path d="m37 23v.51.01c-1.43-.96-3.15-1.52-5-1.52s-3.57.56-5 1.52v-.01-.51c0-2.05 1.24-3.81 3-4.58.61-.27 1.29-.42 2-.42s1.39.15 2 .42c1.76.77 3 2.53 3 4.58z" fill="#5c9eff"/><path d="m40.35 27.64c.42 1.03.65 2.17.65 3.36h-9-9c0-3.12 1.59-5.87 4-7.48 1.43-.96 3.15-1.52 5-1.52s3.57.56 5 1.52c1.49 1 2.67 2.43 3.35 4.12z" fill="#94c1ff"/><path d="m41 34v3c0 1.19-.23 2.32-.65 3.36-1.33 3.31-4.57 5.64-8.35 5.64v-14.92-.08h9z" fill="#94c1ff"/><g fill="#116fff"><path d="m31.974 60.001c-4.887 0-9.718-1.298-13.972-3.753-13.367-7.716-17.966-24.873-10.253-38.246 4.99-8.636 14.294-14.001 24.28-14.001 4.886 0 9.717 1.298 13.97 3.754 13.368 7.716 17.966 24.872 10.249 38.245-4.985 8.636-14.287 14.001-24.274 14.001zm.055-54c-9.274 0-17.915 4.982-22.548 13.001-7.162 12.418-2.891 28.35 9.521 35.514 3.95 2.28 8.436 3.485 12.972 3.485 9.275 0 17.913-4.982 22.542-13.001 7.166-12.418 2.897-28.349-9.517-35.513-3.949-2.28-8.435-3.486-12.97-3.486z"/><path d="m6 12c-3.309-.001-6-2.692-6-6 0-3.309 2.691-6 6-6s6 2.691 6 6-2.691 6-6 6zm0-10c-2.206 0-4 1.794-4 4 0 2.205 1.795 3.999 4 4 2.206 0 4-1.795 4-4 0-2.206-1.794-4-4-4z"/><path d="m18.773 9.463c-.263 0-.525-.104-.722-.308-1.332-1.389-3.126-2.155-5.051-2.155-.597 0-1.188.074-1.757.222-.534.142-1.08-.183-1.219-.717-.139-.535.183-1.081.717-1.219.734-.19 1.493-.286 2.259-.286 2.476 0 4.782.984 6.495 2.771.383.399.369 1.032-.029 1.414-.195.185-.444.278-.693.278z"/><path d="m7.779 21.061c-.231 0-.464-.08-.653-.242-1.986-1.715-3.126-4.199-3.126-6.819 0-1.174.223-2.316.663-3.396.209-.512.791-.758 1.304-.548.511.208.757.792.548 1.304-.342.838-.515 1.726-.515 2.64 0 2.037.887 3.971 2.433 5.303.418.361.465.992.104 1.411-.198.229-.477.347-.758.347z"/><path d="m58 64c-3.309 0-6-2.691-6-6s2.691-6 6-6c3.309.001 6 2.692 6 6 0 3.309-2.691 6-6 6zm0-10c-2.206 0-4 1.794-4 4s1.794 4 4 4 4-1.794 4-4c0-2.205-1.795-3.999-4-4z"/><path d="m51 59c-2.476 0-4.782-.984-6.495-2.771-.383-.399-.369-1.032.029-1.414.399-.382 1.031-.368 1.414.029 1.333 1.39 3.127 2.156 5.052 2.156.597 0 1.188-.074 1.757-.222.533-.143 1.081.183 1.219.717.139.535-.183 1.081-.717 1.219-.734.19-1.493.286-2.259.286z"/><path d="m58.411 54.018c-.126 0-.254-.023-.378-.074-.511-.208-.757-.792-.548-1.304.342-.838.515-1.726.515-2.64 0-2.037-.887-3.971-2.433-5.303-.418-.361-.465-.992-.104-1.411.361-.42.992-.463 1.411-.104 1.986 1.714 3.126 4.198 3.126 6.818 0 1.174-.223 2.316-.663 3.396-.158.387-.531.622-.926.622z"/><path d="m6 64c-3.309 0-6-2.691-6-6s2.691-6 6-6 6 2.691 6 6c-.001 3.309-2.692 6-6 6zm0-10c-2.206 0-4 1.794-4 4s1.794 4 4 4c2.205 0 3.999-1.795 4-4 0-2.206-1.794-4-4-4z"/><path d="m6.253 54.008c-.444 0-.851-.299-.967-.749-.19-.734-.286-1.493-.286-2.259 0-2.476.984-4.782 2.771-6.495.399-.381 1.032-.368 1.414.029.383.399.369 1.032-.029 1.414-1.39 1.333-2.156 3.127-2.156 5.052 0 .597.074 1.188.222 1.757.139.535-.183 1.081-.717 1.219-.085.022-.169.032-.252.032z"/><path d="m14 60c-1.174 0-2.316-.223-3.396-.663-.511-.208-.757-.792-.548-1.304.208-.512.79-.758 1.304-.548.838.342 1.726.515 2.64.515 2.037 0 3.971-.887 5.303-2.433.362-.42.991-.463 1.411-.104.418.361.465.992.104 1.411-1.714 1.986-4.198 3.126-6.818 3.126z"/><path d="m58 12c-3.309 0-6-2.691-6-6 .001-3.309 2.692-6 6-6 3.309 0 6 2.691 6 6s-2.691 6-6 6zm0-10c-2.205 0-3.999 1.795-4 4 0 2.206 1.794 4 4 4s4-1.794 4-4-1.794-4-4-4z"/><path d="m55.537 19.773c-.263 0-.525-.104-.722-.308-.383-.399-.369-1.032.029-1.414 1.39-1.332 2.156-3.126 2.156-5.051 0-.597-.074-1.188-.222-1.757-.139-.535.183-1.081.717-1.219.541-.143 1.081.183 1.219.717.19.734.286 1.493.286 2.259 0 2.476-.984 4.782-2.771 6.495-.194.186-.443.278-.692.278z"/><path d="m43.939 8.779c-.231 0-.464-.08-.653-.242-.418-.361-.465-.992-.104-1.411 1.714-1.986 4.198-3.126 6.818-3.126 1.174 0 2.316.223 3.396.663.511.208.757.792.548 1.304s-.794.757-1.304.548c-.838-.342-1.726-.515-2.64-.515-2.037 0-3.971.887-5.303 2.433-.198.229-.477.346-.758.346z"/><path d="m32 47c-5.514 0-9.999-4.485-9.999-9.999 0-.553.447-1 1-1s1 .447 1 1c0 4.411 3.588 7.999 7.999 7.999s7.999-3.588 7.999-7.999c0-.553.447-1 1-1s1 .447 1 1c0 5.514-4.485 9.999-9.999 9.999z"/><path d="m41.003 31.998c-.553 0-1-.447-1-1 0-4.413-3.59-8.003-8.003-8.003s-8.004 3.59-8.004 8.003c0 .553-.447 1-1 1s-1-.447-1-1c0-5.516 4.487-10.003 10.004-10.003 5.516 0 10.003 4.487 10.003 10.003 0 .553-.447 1-1 1z"/><path d="m41.002 38c-.553 0-1-.447-1-1v-6.002c0-.553.447-1 1-1s1 .447 1 1v6.002c0 .553-.447 1-1 1z"/><path d="m22.998 38c-.553 0-1-.447-1-1v-6.002c0-.553.447-1 1-1s1 .447 1 1v6.002c0 .553-.447 1-1 1z"/><path d="m37 23.999c-.553 0-1-.447-1-1 0-2.206-1.794-4-4-4s-4 1.794-4 4c0 .553-.447 1-1 1s-1-.447-1-1c0-3.309 2.691-6 6-6s6 2.691 6 6c0 .553-.447 1-1 1z"/><path d="m27 24.51c-.553 0-1-.447-1-1v-.511c0-.553.447-1 1-1s1 .447 1 1v.511c0 .553-.447 1-1 1z"/><path d="m37 24.511c-.553 0-1-.447-1-1v-.512c0-.553.447-1 1-1s1 .447 1 1v.512c0 .552-.447 1-1 1z"/><path d="m41.003 31.998h-18.007c-.553 0-1-.447-1-1s.447-1 1-1h18.007c.553 0 1 .447 1 1s-.447 1-1 1z"/><path d="m32 47c-.553 0-1-.447-1-1v-14.918c0-.553.447-1 1-1s1 .447 1 1v14.918c0 .553-.447 1-1 1z"/><path d="m34 19.416c-.132 0-.266-.025-.394-.081-.508-.217-.743-.805-.525-1.313l1-2.334c.217-.509.808-.745 1.313-.525.508.217.743.805.525 1.313l-1 2.334c-.162.379-.531.606-.919.606z"/><path d="m29.998 19.416c-.393 0-.766-.232-.925-.618l-.998-2.418c-.21-.511.033-1.096.543-1.307.508-.206 1.096.032 1.307.543l.998 2.418c.21.511-.033 1.096-.543 1.307-.125.051-.254.075-.382.075z"/><path d="m47.002 34.998h-6.003c-.553 0-1-.447-1-1s.447-1 1-1h6.003c.553 0 1 .447 1 1s-.447 1-1 1z"/><path d="m40.355 28.641c-.256 0-.512-.098-.707-.293-.391-.391-.391-1.023 0-1.414l4.642-4.643c.391-.391 1.023-.391 1.414 0s.391 1.023 0 1.414l-4.642 4.643c-.195.195-.451.293-.707.293z"/><path d="m44.997 46c-.256 0-.512-.098-.707-.293l-4.642-4.641c-.391-.391-.391-1.023 0-1.414s1.023-.391 1.414 0l4.642 4.641c.391.391.391 1.023 0 1.414-.195.195-.451.293-.707.293z"/><path d="m23.001 35h-6.003c-.553 0-1-.447-1-1s.447-1 1-1h6.003c.553 0 1 .447 1 1s-.447 1-1 1z"/><path d="m19.003 46c-.256 0-.512-.098-.707-.293-.391-.391-.391-1.023 0-1.414l4.642-4.641c.391-.391 1.023-.391 1.414 0s.391 1.023 0 1.414l-4.642 4.641c-.195.195-.451.293-.707.293z"/><path d="m23.645 28.641c-.256 0-.512-.098-.707-.293l-4.642-4.643c-.391-.391-.391-1.023 0-1.414s1.023-.391 1.414 0l4.642 4.643c.391.391.391 1.023 0 1.414-.196.195-.452.293-.707.293z"/></g></svg>