<svg id="Layer_35" enable-background="new 0 0 64 64" height="512" viewBox="0 0 64 64" width="512" xmlns="http://www.w3.org/2000/svg" xmlns:xlink="http://www.w3.org/1999/xlink"><linearGradient id="SVGID_1_" gradientUnits="userSpaceOnUse" x1="32" x2="32" y1="63" y2="1"><stop offset="0" stop-color="#9f2fff"/><stop offset="1" stop-color="#0bb1d3"/></linearGradient><path d="m40 57h10v2h-10zm23-51v52c0 2.757-2.243 5-5 5h-26c-2.757 0-5-2.243-5-5v-17.884c-1.76-1.994-3.027-4.422-3.617-7.083l-9.383-2.011v7.978c3.859 0 7 3.141 7 7v13c0 2.206-1.794 4-4 4-2.207 0-4.002-1.794-4.002-4l.002-11c0-.552-.448-1-1-1h-3v12c0 2.206-1.794 4-4 4s-4-1.794-4-4v-19-8c0-3.838 2.42-7.114 5.811-8.405-1.703-1.279-2.811-3.307-2.811-5.595 0-3.86 3.141-7 7-7s7 3.14 7 7c0 2.135-.963 4.046-2.475 5.331l7.475 1.759v-4.09h3.528c.157 0 .314-.01.472-.014v-14.986c0-2.757 2.243-5 5-5h26c2.757 0 5 2.243 5 5zm-24-2c0 .551.448 1 1 1h10c.552 0 1-.449 1-1v-1h-12zm-10 16.82c.674-.094 1.341-.226 2-.396v-9.424c0-1.103.897-2 2-2h24c1.103 0 2 .897 2 2v38c0 1.103-.897 2-2 2h-24c-1.103 0-2-.897-2-2v-5.606c-.702-.406-1.371-.861-2-1.365v10.971h32v-47c0-1.654-1.346-3-3-3h-5v1c0 1.654-1.346 3-3 3h-10c-1.654 0-3-1.346-3-3v-1h-5c-1.654 0-3 1.346-3 3zm-18 2.18c2.757 0 5-2.243 5-5s-2.243-5-5-5-5 2.243-5 5 2.243 5 5 5zm-4 36v-12.08c-1.556-.224-2.949-.957-4-2.031v14.111c0 1.103.897 2 2 2s2-.897 2-2zm7.21-29.978 13.719 2.94c1.039.226 2.071-.61 2.071-1.674v-.139c0-.798-.543-1.484-1.321-1.667l-14.795-3.482h-3.884c-3.859 0-7 3.14-7 7v8c0 2.757 2.243 5 5 5h4c1.654 0 3 1.346 3 3l-.002 11c0 1.103.897 2 2 2 1.104 0 2.002-.897 2.002-2v-13c0-2.757-2.243-5-5-5h-2v-12zm17.79 1.126v.139c0 1.481-.879 2.753-2.137 3.348 1.015 2.28 2.835 4.09 5.137 5.08 3.604-1.557 6-5.172 6-9.118v-2.728c-2.053-.214-4.065-.69-6-1.421-1.682.635-3.425 1.066-5.201 1.312 1.323.588 2.201 1.895 2.201 3.388zm-6.446 3.351c1.298 4.47 4.883 8.119 9.446 9.462 3.085-.907 5.771-2.861 7.585-5.524l.298-.437h12.117v2h-11.071c-2.126 2.906-5.184 5.015-8.665 5.965l-.264.071-.263-.071c-.595-.162-1.172-.367-1.737-.595v4.63h24v-38h-24v8.783c.527-.203 1.047-.425 1.553-.678l.447-.223.447.224c2.479 1.239 5.254 1.894 8.025 1.894h3.528v4h8v2h-10v-4h-1.528c-2.914 0-5.832-.652-8.472-1.889-2.64 1.237-5.558 1.889-8.472 1.889h-1.528v2.561l2 .471v-1.016l.935-.061c2.3-.15 4.553-.657 6.697-1.506l.368-.147.368.146c2.145.85 4.397 1.356 6.697 1.506l.935.061v4.583c0 4.896-3.07 9.369-7.641 11.13l-.359.139-.359-.139c-3.137-1.208-5.57-3.662-6.794-6.775-.112-.013-.226-.012-.336-.036zm35.446 24.501v-3h-32v3c0 1.654 1.346 3 3 3h26c1.654 0 3-1.346 3-3zm-6-29h-10v2h10zm0 4h-10v2h10zm-20-18h2v-2h-2zm4 0h2v-2h-2zm4 0h2v-2h-2zm10 32h2v-2h-2zm-4 0h2v-2h-2zm-4 0h2v-2h-2z" fill="url(#SVGID_1_)"/></svg>