<svg id="Layer_35" enable-background="new 0 0 64 64" height="512" viewBox="0 0 64 64" width="512" xmlns="http://www.w3.org/2000/svg" xmlns:xlink="http://www.w3.org/1999/xlink"><linearGradient id="SVGID_1_" gradientUnits="userSpaceOnUse" x1="32" x2="32" y1="63" y2="1"><stop offset="0" stop-color="#9f2fff"/><stop offset="1" stop-color="#0bb1d3"/></linearGradient><path d="m7 7h-2v-2h2zm4-2h-2v2h2zm4 0h-2v2h2zm-14-4h62v42h-3.118c.073.658.118 1.323.118 2 0 9.925-8.075 18-18 18s-18-8.075-18-18c0-.677.045-1.342.118-2h-23.118zm41 60c2.835 0 5.496-.749 7.808-2.048-.791-2.259-4.041-3.952-7.808-3.952s-7.017 1.693-7.808 3.952c2.312 1.299 4.973 2.048 7.808 2.048zm-.276-7.991c.092-.002.183-.009.276-.009s.184.007.276.009l.701-12.618-.977-.977-.977.977zm16.225-7.009h-3.949v-2h3.949c-.228-3.658-1.683-6.981-3.968-9.568l-2.789 2.789-1.414-1.414 2.789-2.789c-2.587-2.284-5.91-3.74-9.568-3.968v3.95h-2v-3.949c-3.658.228-6.981 1.683-9.568 3.968l2.789 2.789-1.414 1.414-2.789-2.789c-2.284 2.587-3.74 5.91-3.968 9.568h3.951v2h-3.949c.302 4.846 2.763 9.106 6.439 11.837 1.07-2.338 3.822-4.101 7.242-4.65l-.755-13.577 3.023-3.025 3.023 3.023-.755 13.577c3.419.55 6.172 2.313 7.242 4.65 3.676-2.73 6.137-6.99 6.439-11.836zm3.051-5v-30h-58v30h21.464c1.825-8.004 8.987-14 17.536-14s15.711 5.996 17.536 14zm-58-38v6h58v-6zm10 25h2.724l-5.724 10.016-5.724-10.016h2.724v-15h6zm-.724 2h-1.276v-15h-2v15h-1.276l2.276 3.984zm9.724-18.016 5.724 10.016h-2.724v15h-6v-15h-2.724zm2.276 8.016-2.276-3.984-2.276 3.984h1.276v15h2v-15zm10.724-7h24v12h-24zm2 10h20v-8h-20z" fill="url(#SVGID_1_)"/></svg>