<svg id="Layer_35" enable-background="new 0 0 64 64" height="512" viewBox="0 0 64 64" width="512" xmlns="http://www.w3.org/2000/svg" xmlns:xlink="http://www.w3.org/1999/xlink"><linearGradient id="SVGID_1_" gradientUnits="userSpaceOnUse" x1="32" x2="32" y1="63" y2="1"><stop offset="0" stop-color="#9f2fff"/><stop offset="1" stop-color="#0bb1d3"/></linearGradient><path d="m60 1h-18c-1.654 0-3 1.346-3 3v5h-15c-1.654 0-3 1.346-3 3v5h-13c-2.757 0-5 2.243-5 5v31h-2v5c0 2.757 2.243 5 5 5h44c2.757 0 5-2.243 5-5v-5h-2v-6h7c1.654 0 3-1.346 3-3v-16c0-1.654-1.346-3-3-3h-15v-2h15c1.654 0 3-1.346 3-3v-16c0-1.654-1.346-3-3-3zm-37 11c0-.552.449-1 1-1h18c.551 0 1 .448 1 1v16c0 .552-.449 1-1 1h-18c-.551 0-1-.448-1-1zm19 35h5v2h-38v-26h12v5c0 1.654 1.346 3 3 3h15v13c0 1.654 1.346 3 3 3zm6-13c0-1.654 1.346-3 3-3s3 1.346 3 3-1.346 3-3 3-3-1.346-3-3zm-3 11c0-3.309 2.691-6 6-6s6 2.691 6 6zm8 13c0 1.654-1.346 3-3 3h-44c-1.654 0-3-1.346-3-3v-3h15.219l1 4h17.562l1-4h15.219zm-32.719-3h15.438l-.5 2h-14.438zm30.719-2h-46v-31c0-1.654 1.346-3 3-3h13v2h-14v30h42v-4h2zm9-26c.551 0 1 .448 1 1v16c0 .552-.449 1-1 1h-1c0-3.232-1.93-6.016-4.695-7.277 1.031-.917 1.695-2.238 1.695-3.723 0-2.757-2.243-5-5-5s-5 2.243-5 5c0 1.485.664 2.806 1.695 3.723-2.765 1.261-4.695 4.045-4.695 7.277h-1c-.551 0-1-.448-1-1v-13h1c1.654 0 3-1.346 3-3v-1zm1-7c0 .552-.449 1-1 1h-15v-9c0-1.654-1.346-3-3-3h-1v-5c0-.552.449-1 1-1h18c.551 0 1 .448 1 1zm-10-7c-1.654 0-3 1.346-3 3s1.346 3 3 3 3-1.346 3-3-1.346-3-3-3zm0 4c-.551 0-1-.448-1-1s.449-1 1-1 1 .448 1 1-.449 1-1 1zm0-8c1.87 0 3.627.729 4.95 2.051l-1.414 1.414c-.945-.944-2.201-1.465-3.536-1.465s-2.591.521-3.536 1.465l-1.414-1.414c1.323-1.322 3.08-2.051 4.95-2.051zm7.778-.778-1.414 1.414c-3.51-3.51-9.219-3.51-12.729 0l-1.414-1.414c4.29-4.289 11.268-4.289 15.557 0zm-47.778 22.778h6v-6h-6zm2-4h2v2h-2zm-2 12h6v-6h-6zm2-4h2v2h-2zm-2 12h6v-6h-6zm2-4h2v2h-2zm6-4h6v-6h-6zm2-4h2v2h-2zm-2 12h6v-6h-6zm2-4h2v2h-2zm6-4h6v-6h-6zm2-4h2v2h-2zm-2 12h6v-6h-6zm2-4h2v2h-2zm4-16c3.86 0 7-3.141 7-7s-3.14-7-7-7-7 3.141-7 7 3.14 7 7 7zm0-12c2.757 0 5 2.243 5 5s-2.243 5-5 5-5-2.243-5-5 2.243-5 5-5zm-1.293 7.707-1.414-1.414 1.707-1.707v-2.586h2v3.414z" fill="url(#SVGID_1_)"/></svg>