<svg id="Layer_35" enable-background="new 0 0 64 64" height="512" viewBox="0 0 64 64" width="512" xmlns="http://www.w3.org/2000/svg" xmlns:xlink="http://www.w3.org/1999/xlink"><linearGradient id="SVGID_1_" gradientUnits="userSpaceOnUse" x1="32" x2="32" y1="63" y2="1"><stop offset="0" stop-color="#9f2fff"/><stop offset="1" stop-color="#0bb1d3"/></linearGradient><path d="m59.929 23.201c-1.114-4.232-4.613-7.345-8.822-8.049 1.766-1.469 2.893-3.681 2.893-6.152 0-4.411-3.589-8-8-8s-8 3.589-8 8c0 2.39 1.059 4.533 2.726 6h-16.726c-2.206 0-4 1.794-4 4s1.794 4 4 4h15v36c0 2.206 1.794 4 4 4 1.193 0 2.267-.525 3-1.357.733.832 1.807 1.357 3 1.357 2.206 0 4-1.794 4-4v-32.877l2.527 10.107c.407 1.631 1.866 2.77 3.547 2.77h.27c2.016 0 3.656-1.641 3.656-3.656 0-.314-.041-.627-.12-.931zm-11.929-6.201c0 1.103-.897 2-2 2s-2-.897-2-2zm-8-8c0-3.309 2.691-6 6-6s6 2.691 6 6-2.691 6-6 6-6-2.691-6-6zm19.344 28h-.27c-.762 0-1.422-.516-1.607-1.254l-3.686-14.746h-2.781v38c0 1.103-.897 2-2 2s-2-.897-2-2v-27h-2v27c0 1.103-.897 2-2 2s-2-.897-2-2v-38h-17c-1.103 0-2-.897-2-2s.897-2 2-2h18c0 2.206 1.794 4 4 4 2.195 0 3.981-1.779 3.997-3.97 3.786.297 7.018 2.959 7.998 6.68l2.951 11.213c.035.137.054.278.054.421 0 .913-.743 1.656-1.656 1.656zm-26.93 26 4.586-4.586v-26.828l-4.586-4.586h-26.828l-4.586 4.586v26.828l4.586 4.586zm-29.414-30.586 3.414-3.414h25.172l3.414 3.414v25.172l-3.414 3.414h-25.172l-3.414-3.414zm6 22.586h3v4h2v-4h2v4h2v-4h2v4h2v-4h2v4h2v-4h3v-3h4v-2h-4v-2h4v-2h-4v-2h4v-2h-4v-2h4v-2h-4v-3h-3v-4h-2v4h-2v-4h-2v4h-2v-4h-2v4h-2v-4h-2v4h-3v3h-4v2h4v2h-4v2h4v2h-4v2h4v2h-4v2h4zm2-18h16v16h-16zm2 10h12v-8h-12zm2-6h8v4h-8zm-2 8h12v2h-12z" fill="url(#SVGID_1_)"/></svg>