<svg id="Layer_35" enable-background="new 0 0 64 64" height="512" viewBox="0 0 64 64" width="512" xmlns="http://www.w3.org/2000/svg" xmlns:xlink="http://www.w3.org/1999/xlink"><linearGradient id="SVGID_1_" gradientUnits="userSpaceOnUse" x1="32" x2="32" y1="63" y2="1"><stop offset="0" stop-color="#9f2fff"/><stop offset="1" stop-color="#0bb1d3"/></linearGradient><path d="m58.813 32.409c-.505-2.158-2.021-3.915-3.983-4.795 1.325-1.102 2.17-2.761 2.17-4.614 0-2.632-1.706-4.868-4.068-5.675-.334-2.436-2.406-4.325-4.932-4.325h-13.763c-2.18-7.1-8.739-12-16.237-12-9.374 0-17 7.626-17 17 0 6.734 3.906 12.732 10 15.483v10.517 1 18h14v-14h13v10c0 2.206 1.794 4 4 4h18v-2h-4v-10h2c2.757 0 5-2.243 5-5v-6c0-3.191-1.675-5.993-4.187-7.591zm-2.649-1.135c-.694-.172-1.417-.274-2.164-.274-4.962 0-9 4.038-9 9v3h-3-7.5c-.827 0-1.5-.673-1.5-1.5s.673-1.5 1.5-1.5h6.666c.967 0 1.795-.691 1.968-1.643l.419-2.308c.742-4.084 4.295-7.049 8.447-7.049 1.716 0 3.259.906 4.164 2.274zm-10.164 27.726v-8h.947 3.053v10h-4.556c.344-.591.556-1.268.556-2zm-42.963-40h6.001c.092 2.083.465 4.097 1.118 6h-5.426c-.961-1.827-1.552-3.86-1.693-6zm14.958-15.773c.982.756 3.145 2.658 4.81 5.773h-9.635c1.668-3.147 3.832-5.025 4.825-5.773zm5.723 7.773c.245.631.467 1.294.651 2h-.369c-2.414 0-4.434 1.721-4.899 4h-8.057c.108-2.292.565-4.29 1.221-6zm-14.674 6h-5.993c.143-2.155.732-4.188 1.693-6h5.397c-.597 1.749-1 3.749-1.097 6zm1.993 2h7.963v6h-6.726c-.725-1.875-1.138-3.88-1.237-6zm7.963 8v2h-4.57c-.46-.647-.88-1.312-1.247-2zm-6 4h6v1c0 2.757 2.243 5 5 5h5v2.101c-1.956.399-3.5 1.943-3.899 3.899h-12.101zm34.619-3.048c-1.524.694-2.857 1.742-3.897 3.048h-18.722v-12h21.54c-.954 1.063-1.54 2.462-1.54 4 0 2.055 1.039 3.87 2.619 4.952zm-15.561 11.048h-1.058v-2h10.347l-.182 1h-6.665c-.95 0-1.81.383-2.442 1zm-2.058 2h1.051c-.024.165-.051.329-.051.5 0 .539.133 1.044.351 1.5h-4.167c.414-1.161 1.514-2 2.816-2zm25-18c0 2.206-1.794 4-4 4s-4-1.794-4-4 1.794-4 4-4 4 1.794 4 4zm-4.181-5.991c-.858.026-1.669.232-2.4.583-.363-.365-.865-.592-1.419-.592h-22c-1.103 0-2 .897-2 2v12c0 1.103.897 2 2 2h17.458c-.303.631-.539 1.302-.715 2h-17.743c-1.654 0-3-1.346-3-3v-14c0-1.654 1.346-3 3-3h24c1.305 0 2.407.843 2.819 2.009zm-24.397-4.009c-.163-.697-.348-1.368-.564-2h5.407c.337.64.637 1.305.882 2zm3.574-4h-4.948c-1.166-2.5-2.65-4.372-3.916-5.658 3.568.76 6.708 2.787 8.864 5.658zm-15.125-5.667c-1.272 1.289-2.77 3.156-3.939 5.667h-4.903c2.138-2.838 5.248-4.901 8.842-5.667zm-8.878 23.667h4.976c.319.685.669 1.354 1.063 2h-1.032v2.262c-2-1.052-3.697-2.514-5.007-4.262zm7.007 34v-16h10v4h-1c-1.654 0-3 1.346-3 3v2c0 1.654 1.346 3 3 3h1v4zm10-10v4h-1c-.551 0-1-.449-1-1v-2c0-.551.449-1 1-1zm2-6h9.5 4.526c-.442.584-.773 1.257-.924 2h-13.102zm15 14v-11c0-1.654 1.346-3 3-3h2v4.278c-.595.347-1 .985-1 1.722v8c0 1.103-.897 2-2 2s-2-.897-2-2zm14 2h-2v-10h2zm7-15c0 1.654-1.346 3-3 3h-11v-9c0-3.86 3.14-7 7-7s7 3.14 7 7zm-48-31v-2h2v2zm6 0h-2v-2h2zm-4 24h2v2h-2zm0-4h2v2h-2z" fill="url(#SVGID_1_)"/></svg>