<svg id="Layer_35" enable-background="new 0 0 64 64" height="512" viewBox="0 0 64 64" width="512" xmlns="http://www.w3.org/2000/svg" xmlns:xlink="http://www.w3.org/1999/xlink"><linearGradient id="SVGID_1_" gradientUnits="userSpaceOnUse" x1="32" x2="32" y1="63" y2="1"><stop offset="0" stop-color="#9f2fff"/><stop offset="1" stop-color="#0bb1d3"/></linearGradient><path d="m5 47h2v2h-2zm4 2h4v-2h-4zm6 0h2v-2h-2zm39.414-48 8.586 8.586v31.414h-10.101c-.247 1.213-.946 2.253-1.899 2.974v4.026c0 2.757-2.243 5-5 5h-11v4h1c2.757 0 5 2.243 5 5v1h-30v-1c0-2.757 2.243-5 5-5h1v-4h-11c-2.757 0-5-2.243-5-5v-24c0-2.757 2.243-5 5-5h17v-9c0-2.757 2.243-5 5-5h5v-4zm.586 8h4.586l-4.586-4.586zm-30 1c0 1.654 1.346 3 3 3h5v-6h-5c-1.654 0-3 1.346-3 3zm0 30c0 1.654 1.346 3 3 3h1v-28h-1c-1.125 0-2.164-.373-3-1.002zm-2 0v-15h-16v18h11.5l3 4h23.5v-2h-17c-2.757 0-5-2.243-5-5zm13 19h-20c-1.304 0-2.416.836-2.829 2h25.657c-.412-1.164-1.524-2-2.828-2zm-3-6h-14v4h14zm16-8.101c-.323.066-.658.101-1 .101h-1v2c0 1.103-.897 2-2 2h-23.5c-.627 0-1.225-.3-1.601-.802l-2.399-3.198h-10.5c-1.103 0-2-.897-2-2v-18c0-1.103.897-2 2-2h16v-2h-17c-1.654 0-3 1.346-3 3v24c0 1.654 1.346 3 3 3h40c1.654 0 3-1.346 3-3zm2-26.899c0-1.654-1.346-3-3-3h-17v28h17c1.654 0 3-1.346 3-3zm2 17h4v-16h-4zm8 4v-28h-8v-8h-18v10h13c2.414 0 4.434 1.721 4.899 4h6.101v20h-6v2zm-22-34h-2v2h2zm4 0h-2v2h2zm2 2h6v-2h-6zm-8 4h14v-2h-14zm20 4h2v-2h-2zm-4 0h2v-2h-2zm-44 12h12v6h-12zm2 4h8v-2h-8zm-2 4h12v6h-12zm2 4h8v-2h-8zm36 2h2v-2h-2zm-4 0h2v-2h-2zm-4 0h2v-2h-2zm0-4h10v-2h-10z" fill="url(#SVGID_1_)"/></svg>