<svg id="Layer_35" enable-background="new 0 0 64 64" height="512" viewBox="0 0 64 64" width="512" xmlns="http://www.w3.org/2000/svg" xmlns:xlink="http://www.w3.org/1999/xlink"><linearGradient id="SVGID_1_" gradientUnits="userSpaceOnUse" x1="32" x2="32" y1="63" y2="1"><stop offset="0" stop-color="#9f2fff"/><stop offset="1" stop-color="#0bb1d3"/></linearGradient><path d="m9.022 54.564-3.729 3.729 1.414 1.414 3.729-3.729c11.377-.235 20.564-9.546 20.564-20.978v-1h-1c-11.432 0-20.743 9.187-20.978 20.564zm3.578-.75 13.107-13.107-1.414-1.414-13.107 13.107c1.227-8.918 8.657-15.883 17.786-16.372-.488 9.129-7.454 16.558-16.372 17.786zm4.4-26.814h-12v-2h12zm0 4h-12v-2h12zm0 4h-12v-2h12zm8-28h-12v-2h12zm0 4h-12v-2h12zm0 4h-12v-2h12zm18-1v-3.414l-9.586-9.586h-24.414v20h-8v42h34v-7h28v-32.414l-9.586-9.586zm11 3.414 5.586 5.586h-5.586zm-11 16.109c1.481-.994 3.197-1.523 5-1.523 4.962 0 9 4.037 9 9s-4.038 9-9 9c-4.266 0-7.858-2.943-8.77-7h3.77zm-9-29.109 5.586 5.586h-5.586zm-23-1.414h21v9h9v29h-6v-10.414l-9.586-9.586h-14.414zm15 21.414 5.586 5.586h-5.586zm-23 36.586v-38h21v9h9v29zm32-7v-11h2.187c.947 5.188 5.445 9 10.813 9 6.065 0 11-4.935 11-11s-4.935-11-11-11c-1.764 0-3.463.414-5 1.202v-15.202h9v9h9v29zm4-35h-26v-2h26zm6 16.132v11.736l8.803-5.868zm2 3.736 3.197 2.132-3.197 2.132zm-18-17.868h10v2h-10zm4 4h6v2h-6zm-4 32h2v2h-2zm-4 0h2v2h-2zm-4 0h2v2h-2z" fill="url(#SVGID_1_)"/></svg>