<svg id="Layer_35" enable-background="new 0 0 64 64" height="512" viewBox="0 0 64 64" width="512" xmlns="http://www.w3.org/2000/svg" xmlns:xlink="http://www.w3.org/1999/xlink"><linearGradient id="SVGID_1_" gradientUnits="userSpaceOnUse" x1="32" x2="32" y1="63" y2="1"><stop offset="0" stop-color="#9f2fff"/><stop offset="1" stop-color="#0bb1d3"/></linearGradient><path d="m13 57h12v2h-12zm6-37c0-1.654-1.346-3-3-3s-3 1.346-3 3v4h2v-4c0-.551.449-1 1-1s1 .449 1 1v1h2zm-2 4c0 .551-.449 1-1 1-.176 0-.349-.046-.5-.134l-1 1.732c.455.263.974.402 1.5.402 1.654 0 3-1.346 3-3v-1h-2zm-1 5c-2.757 0-5-2.243-5-5v-2h-2v2c0 3.86 3.14 7 7 7 2.962 0 5.615-1.875 6.602-4.667l-1.886-.666c-.705 1.994-2.6 3.333-4.716 3.333zm0-16c-3.86 0-7 3.14-7 7h2c0-2.757 2.243-5 5-5s5 2.243 5 5v4h2v-4c0-3.86-3.14-7-7-7zm35 9h12v22h-12v-1.888l-6.562 3.192c-.748.43-1.625.722-2.546.837l-4.892.611v11.248c0 2.757-2.243 5-5 5h-26c-2.757 0-5-2.243-5-5v-52c0-2.757 2.243-5 5-5h26c2.757 0 5 2.243 5 5v15h8c1.505 0 2.997.497 4.2 1.4l1.8 1.35zm-38-18c0 .551.449 1 1 1h10c.551 0 1-.449 1-1v-1h-12zm-10 2v47h32v-5.764c-.192.091-.38.192-.557.31l-1.443.961v.493c0 1.103-.897 2-2 2h-24c-1.103 0-2-.897-2-2v-38c0-1.103.897-2 2-2h24c1.103 0 2 .897 2 2v10h2v-15c0-1.654-1.346-3-3-3h-5v1c0 1.654-1.346 3-3 3h-10c-1.654 0-3-1.346-3-3v-1h-5c-1.654 0-3 1.346-3 3zm28 15.184v-10.184h-24v38h24v-.05c-1.162-.231-2.042-1.257-2.042-2.485 0-3.062 2.179-5.72 5.18-6.32l4.194-.839c-.408-.201-.864-.306-1.318-.306h-21.014c-1.654 0-3-1.346-3-3s1.346-3 3-3h11.184c-.112-.314-.184-.648-.184-1 0-.771.301-1.468.78-2-.48-.532-.78-1.229-.78-2 0-1.383.945-2.539 2.22-2.884-.139-.346-.22-.721-.22-1.116 0-1.302.839-2.402 2-2.816zm4 36.816v-3h-32v3c0 1.654 1.346 3 3 3h26c1.654 0 3-1.346 3-3zm16-18v-14h-.333l-2.667-2c-.859-.645-1.925-1-3-1h-13c-.551 0-1 .449-1 1s.449 1 1 1h2v2h-2-2c-.551 0-1 .449-1 1s.449 1 1 1h4v2h-4c-.551 0-1 .449-1 1s.449 1 1 1h4v2h-4-14c-.551 0-1 .449-1 1s.449 1 1 1h21.014c.772 0 1.545.183 2.236.528l1.708.854v2.438l-6.427 1.286c-2.07.415-3.573 2.248-3.573 4.359 0 .4.498.667.832.445l1.543-1.029c.828-.552 1.788-.91 2.776-1.033l5.534-.691c.658-.083 1.284-.291 1.86-.62l7.267-3.537zm10-16h-4v18h4zm-8 18h2v-18h-2zm-44 5h2v-2h-2zm4 0h10v-2h-10zm-4-4h14v-2h-14z" fill="url(#SVGID_1_)"/></svg>