<svg id="Layer_35" enable-background="new 0 0 64 64" height="512" viewBox="0 0 64 64" width="512" xmlns="http://www.w3.org/2000/svg" xmlns:xlink="http://www.w3.org/1999/xlink"><linearGradient id="SVGID_1_" gradientUnits="userSpaceOnUse" x1="32" x2="32" y1="63" y2="1"><stop offset="0" stop-color="#9f2fff"/><stop offset="1" stop-color="#0bb1d3"/></linearGradient><path d="m43 17c-8.822 0-16 7.178-16 16 0 4.688 2.018 9.009 5.437 12h-5.437v14h32v-27h-.051c-.52-8.356-7.464-15-15.949-15zm-14 16c0-7.72 6.28-14 14-14s14 6.28 14 14c0 7.672-6.205 13.917-13.86 13.993l3.285-3.943c.371-.443.575-1.004.575-1.581 0-.493-.149-.95-.398-1.335 2.605-1.321 4.398-4.019 4.398-7.134 0-4.411-3.589-8-8-8s-8 3.589-8 8c0 3.872 2.767 7.11 6.427 7.843l-5.238 4.365c-4.448-2.479-7.189-7.095-7.189-12.208zm15.232 8.109.001-.002c.083-.069.189-.107.298-.107.259 0 .469.21.469.469 0 .109-.038.215-.109.299l-8.843 10.611c-.328.394-.812.621-1.324.621-.951 0-1.724-.773-1.724-1.724 0-.513.227-.996.621-1.324zm-1.232-2.109c-3.309 0-6-2.691-6-6s2.691-6 6-6 6 2.691 6 6-2.691 6-6 6zm14 18h-28v-10h5.038l-1.698 1.415c-.852.71-1.34 1.753-1.34 2.861 0 2.054 1.67 3.724 3.724 3.724 1.108 0 2.151-.488 2.861-1.34l3.953-4.745c.52.052 1.006.085 1.462.085 6.02 0 11.269-3.345 14-8.271zm-14-28c-2.206 0-4 1.794-4 4s1.794 4 4 4 4-1.794 4-4-1.794-4-4-4zm0 6c-1.103 0-2-.897-2-2s.897-2 2-2 2 .897 2 2-.897 2-2 2zm9 14c-1.654 0-3 1.346-3 3s1.346 3 3 3 3-1.346 3-3-1.346-3-3-3zm0 4c-.552 0-1-.448-1-1s.448-1 1-1 1 .448 1 1-.448 1-1 1zm-11 0h2v2h-2zm4 0h2v2h-2zm-16-34h-2v-2h2zm28-2h2v2h-2zm-44 26v-2h2v2zm6 0h-2v-2h2zm-6 6h2v2h-2zm4 0h2v2h-2zm43-36h-8.154c-1.3-6.897-7.519-12-14.846-12-5.32 0-10.157 2.763-12.864 7.279-1.553-.821-3.306-1.279-5.136-1.279-5.749 0-10.474 4.435-10.953 10.062-3.963.473-7.047 3.85-7.047 7.938 0 3.825 2.7 7.027 6.292 7.812-3.835 3.12-6.292 7.87-6.292 13.188 0 9.374 7.626 17 17 17 1.982 0 3.911-.358 5.759-1.026.55.624 1.346 1.026 2.241 1.026h34c1.654 0 3-1.346 3-3v-44c0-1.654-1.346-3-3-3zm-23-10c6.231 0 11.546 4.226 12.818 10h-21.023c-.732-1.434-1.755-2.662-2.979-3.629 2.338-3.949 6.549-6.371 11.184-6.371zm-28 28c-3.309 0-6-2.691-6-6s2.691-6 6-6 6 2.691 6 6h2c0-4.055-3.036-7.408-6.953-7.923.464-4.531 4.302-8.077 8.953-8.077 3.036 0 5.815 1.536 7.467 4h-.467c-1.654 0-3 1.346-3 3v13.765c-1.623-.503-3.298-.765-5-.765-2.885 0-5.601.727-7.983 2zm8.996 29.773c-.993-.747-3.158-2.626-4.825-5.773h9.643c-1.66 3.114-3.833 5.018-4.818 5.773zm-14.945-13.773h5.993c.097 2.252.499 4.251 1.097 6h-5.398c-.96-1.812-1.549-3.845-1.692-6zm11.82-15.667c-1.273 1.289-2.771 3.156-3.939 5.667h-4.904c2.139-2.838 5.249-4.901 8.843-5.667zm8.129 9.667h-2v2h2v2h-11.956c.108-2.292.565-4.29 1.221-6h10.735zm-9.829-4c1.667-3.147 3.832-5.025 4.825-5.773.985.756 3.159 2.66 4.818 5.773zm-3.03 2c-.597 1.749-1 3.749-1.097 6h-5.993c.143-2.155.732-4.188 1.693-6zm.903 8h11.956v2h-2v2h2v2h-10.735c-.656-1.71-1.113-3.708-1.221-6zm10.084-15.657c.633.136 1.256.32 1.872.539v1.664c-.638-.868-1.279-1.599-1.872-2.203zm-15.1 23.657h4.904c1.168 2.511 2.666 4.378 3.939 5.667-3.594-.766-6.704-2.829-8.843-5.667zm15.092 5.667c.596-.606 1.24-1.34 1.88-2.212v1.545c0 .041.01.079.012.12-.621.221-1.251.41-1.892.547zm39.88-.667c0 .552-.448 1-1 1h-34c-.552 0-1-.448-1-1v-44c0-.552.448-1 1-1h34c.552 0 1 .448 1 1zm-28-27h-2c0-6.617 5.383-12 12-12v2c-5.514 0-10 4.486-10 10zm-24-12v2c-1.103 0-2 .897-2 2h-2c0-2.206 1.794-4 4-4zm10-8c-2.116 0-4.011 1.34-4.715 3.333l-1.887-.666c.987-2.792 3.64-4.667 6.602-4.667.802 0 1.587.135 2.334.399l-.668 1.885c-.532-.188-1.093-.284-1.666-.284z" fill="url(#SVGID_1_)"/></svg>