<svg id="Layer_35" enable-background="new 0 0 64 64" height="512" viewBox="0 0 64 64" width="512" xmlns="http://www.w3.org/2000/svg" xmlns:xlink="http://www.w3.org/1999/xlink"><linearGradient id="SVGID_1_" gradientUnits="userSpaceOnUse" x1="32" x2="32" y1="63" y2="1"><stop offset="0" stop-color="#9f2fff"/><stop offset="1" stop-color="#0bb1d3"/></linearGradient><path d="m27 43v-2h2v2zm6-2h-2v2h2zm4 0h-2v2h2zm-10 10h2v-2h-2zm4 0h2v-2h-2zm4-2v2h2v-2zm-34-48h62v42h-14.281c.174.976.281 1.975.281 3 0 9.374-7.626 17-17 17s-17-7.626-17-17c0-1.025.107-2.024.281-3h-14.281zm19.029 36h4.904c1.168-2.511 2.666-4.378 3.939-5.667-3.595.766-6.705 2.829-8.843 5.667zm16.971-16v-6h-10v6zm-.171 34h-9.658c1.669 3.152 3.838 5.031 4.829 5.776.99-.744 3.159-2.623 4.829-5.776zm.906-2c.656-1.71 1.113-3.708 1.221-6h-13.912c.108 2.292.565 4.29 1.221 6zm-18.991 0h5.397c-.597-1.749-1-3.749-1.097-6h-5.993c.143 2.155.732 4.188 1.693 6zm8.427-16h9.658c-1.669-3.152-3.838-5.031-4.829-5.776-.991.745-3.16 2.624-4.829 5.776zm-.906 2c-.656 1.71-1.113 3.708-1.221 6h13.913c-.108-2.292-.565-4.29-1.221-6zm13.594 14h5.397c.961-1.812 1.55-3.845 1.693-6h-5.993c-.097 2.251-.5 4.251-1.097 6zm7.09-8c-.143-2.155-.732-4.188-1.693-6h-5.397c.597 1.749 1 3.749 1.097 6zm-11.82-13.667c1.273 1.289 2.771 3.156 3.939 5.667h4.904c-2.139-2.838-5.249-4.901-8.843-5.667zm-18.078 13.667h5.993c.097-2.251.499-4.251 1.097-6h-5.397c-.961 1.812-1.55 3.845-1.693 6zm11.82 15.667c-1.273-1.289-2.771-3.156-3.939-5.667h-4.904c2.139 2.838 5.249 4.901 8.843 5.667zm15.1-5.667h-4.904c-1.168 2.511-2.666 4.378-3.939 5.667 3.595-.766 6.705-2.829 8.843-5.667zm17.029-14v-30h-58v30h12.753c.679-2.202 1.797-4.21 3.247-5.932v-4.375l-8-3v-4.693h-6v-10h14v10h-6v3.307l8 3v3.755c2.729-2.324 6.198-3.788 10-4.011v-6.051h-6v-10h14v10h-6v6.051c3.802.223 7.271 1.687 10 4.011v-3.755l8-3v-3.307h-6v-10h14v10h-6v4.693l-8 3v4.375c1.45 1.722 2.568 3.73 3.247 5.932zm-4-20v-6h-10v6zm-40 0v-6h-10v6zm-14-18v6h58v-6zm4 2h-2v2h2zm4 0h-2v2h2zm4 0h-2v2h2z" fill="url(#SVGID_1_)"/></svg>