<svg id="Layer_35" enable-background="new 0 0 64 64" height="512" viewBox="0 0 64 64" width="512" xmlns="http://www.w3.org/2000/svg" xmlns:xlink="http://www.w3.org/1999/xlink"><linearGradient id="SVGID_1_" gradientUnits="userSpaceOnUse" x1="32" x2="32" y1="63" y2="1"><stop offset="0" stop-color="#9f2fff"/><stop offset="1" stop-color="#0bb1d3"/></linearGradient><path d="m47 18v-12c0-2.757-2.243-5-5-5h-20c-2.757 0-5 2.243-5 5v12c0 .342.035.677.101 1h-16.101v32h15.999c.647 1.258 1.589 2.364 2.77 3.207l3.231 2.308v6.485h18v-6.485l3.231-2.308c1.18-.843 2.123-1.949 2.77-3.207h15.999v-32h-16.101c.066-.323.101-.658.101-1zm-28-12c0-1.654 1.346-3 3-3h20c1.654 0 3 1.346 3 3v12c0 1.654-1.346 3-3 3h-20c-1.654 0-3-1.346-3-3zm25.5 31c-1.93 0-3.5 1.57-3.5 3.5v.5h-3.264c-1.267-1.811-3.364-3-5.736-3s-4.47 1.189-5.736 3h-3.264v-.5c0-1.93-1.57-3.5-3.5-3.5s-3.5 1.57-3.5 3.5v.5h-5v-10h42v10h-5v-.5c0-1.93-1.57-3.5-3.5-3.5zm-21.5 6h2.295c-.19.634-.295 1.305-.295 2 0 1.497.477 2.883 1.28 4.022l-1.622-.811c-1.023-.511-1.658-1.539-1.658-2.683zm4 2c0-2.757 2.243-5 5-5s5 2.243 5 5-2.243 5-5 5-5-2.243-5-5zm11.705-2h2.295v2.528c0 1.144-.635 2.172-1.658 2.683l-1.622.811c.803-1.139 1.28-2.525 1.28-4.022 0-.695-.105-1.366-.295-2zm-16.521-14c.414-1.161 1.514-2 2.816-2h14c1.302 0 2.402.839 2.816 2zm5.816-4v-2h8v2zm-25 24v-28h15.026c.914 1.207 2.348 2 3.974 2h4v2h-1c-2.414 0-4.434 1.721-4.899 4h-9.101c-1.103 0-2 .897-2 2v10c0 1.103.897 2 2 2h5v3.883c0 .72.088 1.43.255 2.117zm40.069 3.579-4.069 2.906v5.515h-14v-5.515l-4.068-2.906c-1.836-1.311-2.932-3.44-2.932-5.696v-6.383c0-.827.673-1.5 1.5-1.5s1.5.673 1.5 1.5v5.028c0 1.906 1.059 3.62 2.764 4.472l4 2h8.472l4-2c1.705-.852 2.764-2.566 2.764-4.472v-5.028c0-.827.673-1.5 1.5-1.5s1.5.673 1.5 1.5v6.383c0 2.256-1.096 4.385-2.931 5.696zm17.931-31.579v28h-13.254c.166-.687.254-1.397.254-2.117v-3.883h5c1.103 0 2-.897 2-2v-10c0-1.103-.897-2-2-2h-9.101c-.465-2.279-2.484-4-4.899-4h-1v-2h4c1.627 0 3.061-.793 3.974-2zm-38-2h18c1.103 0 2-.897 2-2v-10c0-1.103-.897-2-2-2h-18c-1.103 0-2 .897-2 2v10c0 1.103.897 2 2 2zm0-12h18v10h-18zm-10 26h2v2h-2zm4 0h2v2h-2zm4 0h2v2h-2zm4 0h2v2h-2zm4 0h2v2h-2zm4 0h2v2h-2zm4 0h2v2h-2zm-12 4h2v2h-2zm12 0h2v2h-2zm4-4h2v2h-2zm4 0h2v2h-2zm6 2h-2v-2h2zm-38 2h2v2h-2zm38 2h-2v-2h2zm-46-16h2v2h-2zm0 4h2v2h-2zm0 4h2v2h-2zm54 16h-2v-2h2zm0-4h-2v-2h2zm0-4h-2v-2h2z" fill="url(#SVGID_1_)"/></svg>