<svg id="Layer_35" enable-background="new 0 0 64 64" height="512" viewBox="0 0 64 64" width="512" xmlns="http://www.w3.org/2000/svg" xmlns:xlink="http://www.w3.org/1999/xlink"><linearGradient id="SVGID_1_" gradientUnits="userSpaceOnUse" x1="32" x2="32" y1="63" y2="1"><stop offset="0" stop-color="#9f2fff"/><stop offset="1" stop-color="#0bb1d3"/></linearGradient><path d="m58 25h-2.184c.21-.519.395-1.049.549-1.588l2.635-.62v-7.584l-2.635-.62c-.333-1.16-.795-2.276-1.381-3.332l1.425-2.302-5.363-5.363-2.302 1.425c-1.056-.586-2.172-1.049-3.332-1.381l-.62-2.635h-7.584l-.62 2.635c-1.16.333-2.276.795-3.332 1.381l-2.302-1.425-5.363 5.363 1.425 2.302c-.586 1.056-1.049 2.172-1.381 3.332l-2.635.62v5.248l-3.026-.908c-.718-.215-1.452-.36-2.194-.448 1.363-1.278 2.22-3.089 2.22-5.1 0-3.86-3.14-7-7-7s-7 3.14-7 7c0 2.047.889 3.886 2.294 5.167-4.149.8-7.294 4.454-7.294 8.833v7c0 2.757 2.243 5 5 5v19c0 2.206 1.794 4 4 4 1.2 0 2.266-.542 3-1.382.734.84 1.8 1.382 3 1.382 1.095 0 2.087-.444 2.81-1.159.888.737 2.01 1.159 3.19 1.159h36c2.757 0 5-2.243 5-5v-28c0-2.757-2.243-5-5-5zm3 5v15h-41v-14h3v10c0 1.103.897 2 2 2h32c1.103 0 2-.897 2-2v-10c0-1.103-.897-2-2-2h-29.033c.443-.584.776-1.256.929-2h29.104c1.654 0 3 1.346 3 3zm-41 27v-10h41v10zm5-26h32l.001 10h-32.001zm6-12c0-1.422.303-2.774.841-4h4.686c-.317 1.249-.527 2.593-.527 4 0 .658.054 1.327.143 2h-4.932c-.134-.655-.211-1.324-.211-2zm13.833 6c.25-.671.463-1.338.632-2h4.693c-.309.708-.702 1.378-1.169 2zm-5.515 0c-.28-.673-.513-1.339-.703-2h4.77c-.19.661-.423 1.327-.703 2zm-1.318-6c0-1.406.24-2.759.598-4h4.808c.356 1.239.594 2.592.594 4 0 .655-.069 1.324-.17 2h-5.66c-.101-.676-.17-1.345-.17-2zm1.307-6c.567-1.358 1.205-2.478 1.694-3.246.49.767 1.129 1.887 1.695 3.246zm11.482 8h-4.932c.089-.673.143-1.342.143-2 0-1.407-.21-2.751-.527-4h4.686c.538 1.226.841 2.578.841 4 0 .676-.077 1.345-.211 2zm-5.939-8c-.569-1.532-1.25-2.831-1.832-3.795 2.425.499 4.523 1.885 5.963 3.795zm-7.7 0h-4.131c1.44-1.91 3.538-3.296 5.963-3.795-.581.964-1.263 2.263-1.832 3.795zm-.614 10c.169.662.382 1.329.631 2h-4.156c-.467-.622-.86-1.292-1.169-2zm-11.536-6.208 2.272-.535.146-.595c.338-1.377.882-2.691 1.619-3.904l.318-.524-1.229-1.986 3.123-3.123 1.986 1.229.524-.318c1.213-.736 2.527-1.281 3.904-1.619l.595-.146.534-2.271h4.416l.535 2.272.595.146c1.377.338 2.691.882 3.904 1.619l.524.318 1.986-1.229 3.123 3.123-1.229 1.986.318.524c.736 1.213 1.281 2.527 1.619 3.904l.146.595 2.271.534v4.416l-2.272.535-.146.595c-.226.921-.567 1.808-.975 2.662h-2.219c1.047-1.814 1.612-3.886 1.612-6 0-6.617-5.383-12-12-12s-12 5.383-12 12c0 2.114.565 4.186 1.612 6h-1.718c-.355-1.796-1.653-3.272-3.466-3.816l-.428-.128zm-17-2.792c0-2.757 2.243-5 5-5s5 2.243 5 5-2.243 5-5 5-5-2.243-5-5zm8 47c-1.103 0-2-.897-2-2v-23h-2v23c0 1.103-.897 2-2 2s-2-.897-2-2v-34h-2v13c-1.654 0-3-1.346-3-3v-7c0-3.86 3.14-7 7-7h6.239c1.071 0 2.135.156 3.161.464l5.453 1.636c1.284.385 2.147 1.545 2.147 2.886 0 1.662-1.352 3.014-3.014 3.014h-6.486c-.827 0-1.5-.673-1.5-1.5s.673-1.5 1.5-1.5h6.5v-2h-6.5c-1.93 0-3.5 1.57-3.5 3.5s1.57 3.5 3.5 3.5h.5v28c0 1.103-.897 2-2 2zm42 0h-36c-.827 0-1.596-.357-2.159-.946.093-.338.159-.687.159-1.054h40.816c-.414 1.161-1.514 2-2.816 2zm-1-8h2v2h-2zm2-4v2h-2v-2zm-6 0h2v2h-2zm-2 2h-2v-2h2zm-4 0h-2v-2h2zm-4 0h-2v-2h2zm-4 0h-2v-2h2zm-4 0h-2v-2h2zm-4 0h-2v-2h2zm-6 2h30v2h-30zm2-2h-2v-2h2zm-6-2h2v2h-2zm0 4h2v2h-2z" fill="url(#SVGID_1_)"/></svg>