<svg id="Layer_35" enable-background="new 0 0 64 64" height="512" viewBox="0 0 64 64" width="512" xmlns="http://www.w3.org/2000/svg" xmlns:xlink="http://www.w3.org/1999/xlink"><linearGradient id="SVGID_1_" gradientUnits="userSpaceOnUse" x1="32" x2="32" y1="63" y2="1"><stop offset="0" stop-color="#9f2fff"/><stop offset="1" stop-color="#0bb1d3"/></linearGradient><path d="m61 17c0-2.757-2.243-5-5-5h-3v-7c0-2.206-1.794-4-4-4h-2c-2.206 0-4 1.794-4 4v20c0 2.206 1.794 4 4 4h2c2.206 0 4-1.794 4-4v-7h2v15h-3c-2.414 0-4.434 1.721-4.899 4h-2.202c-.465-2.279-2.484-4-4.899-4h-1v-11c0-2.757-2.243-5-5-5h-.184c-.414-1.161-1.514-2-2.816-2h-4c-1.654 0-3 1.346-3 3s1.346 3 3 3h4c1.302 0 2.402-.839 2.816-2h.184c1.654 0 3 1.346 3 3v11h-1c-1.44 0-2.729.621-3.642 1.598-.853-1.541-2.476-2.598-4.358-2.598h-3.153l-.712-4.274c-.486-2.913-2.284-5.299-4.729-6.616 2.141-1.199 3.594-3.487 3.594-6.11 0-3.86-3.141-7-7-7s-7 3.14-7 7c0 2.316 1.136 4.367 2.875 5.642-1.111.475-2.088 1.198-2.875 2.094v-1.736c0-2.206-1.794-4-4-4s-4 1.794-4 4v18c0 5.579 3.833 10.268 9 11.605v10.395h-4v2h16v-2h-4v-10h2c1.538 0 2.937-.586 4-1.54v9.54c0 2.206 1.794 4 4 4s4-1.794 4-4v-14h21v18h8v-18h2v-8h-2zm-10 8c0 1.103-.897 2-2 2h-2c-1.103 0-2-.897-2-2v-20c0-1.103.897-2 2-2h2c1.103 0 2 .897 2 2zm-20-6h-4c-.552 0-1-.449-1-1s.448-1 1-1h4c.552 0 1 .449 1 1s-.448 1-1 1zm21 16h3c1.103 0 2-.897 2-2v-15c0-1.103-.897-2-2-2h-2v-2h3c1.654 0 3 1.346 3 3v20h-9.829c.413-1.164 1.525-2 2.829-2zm-16 0h4c1.302 0 2.402.839 2.816 2h-9.631c.413-1.161 1.513-2 2.815-2zm-5 2h-6-3-3.969c-.822 0-1.552-.493-1.856-1.257l-3.066-7.663c-.073-.182-.109-.372-.109-.564 0-.836.68-1.516 1.516-1.516h.741c.628 0 1.198.395 1.419.983l2.631 7.017h8.693c1.654 0 3 1.346 3 3zm-20-22c0-2.757 2.243-5 5-5s5 2.243 5 5-2.243 5-5 5-5-2.243-5-5zm5 46h-4v-10.051c.331.028.662.051 1 .051h3zm4-12h-7c-5.514 0-10-4.486-10-10v-18c0-1.103.897-2 2-2s2 .897 2 2v7.015 3.985 6c0 3.86 3.141 7 7 7h10c0 2.206-1.794 4-4 4zm10 10c0 1.103-.897 2-2 2s-2-.897-2-2v-14c0-1.103-.897-2-2-2h-10c-2.757 0-5-2.243-5-5v-6-3.985c0-3.317 2.698-6.015 6.015-6.015 3.557 0 6.562 2.546 7.147 6.055l.658 3.945h-2.126l-2.145-5.719c-.512-1.364-1.835-2.281-3.292-2.281h-.741c-1.939 0-3.516 1.577-3.516 3.516 0 .447.084.886.251 1.306l3.066 7.664c.611 1.527 2.069 2.514 3.714 2.514h3.969 3c2.757 0 5 2.243 5 5zm29 2h-4v-16h4zm2-18h-29.08c-.224-1.557-.957-2.949-2.031-4h3.111 14 14z" fill="url(#SVGID_1_)"/></svg>