<svg id="Layer_35" enable-background="new 0 0 64 64" height="512" viewBox="0 0 64 64" width="512" xmlns="http://www.w3.org/2000/svg" xmlns:xlink="http://www.w3.org/1999/xlink"><linearGradient id="SVGID_1_" gradientUnits="userSpaceOnUse" x1="32" x2="32" y1="63" y2="1"><stop offset="0" stop-color="#9f2fff"/><stop offset="1" stop-color="#0bb1d3"/></linearGradient><path d="m5 33h2v2h-2zm4 2h4v-2h-4zm6 0h2v-2h-2zm48-7v13h-2v18c0 2.206-1.794 4-4 4-1.201 0-2.266-.542-3-1.382-.734.84-1.799 1.382-3 1.382-2.206 0-4-1.794-4-4v-18h-2v-2h-10v4h1c2.757 0 5 2.243 5 5v1h-30v-1c0-2.757 2.243-5 5-5h1v-4h-11c-2.757 0-5-2.243-5-5v-28c0-2.757 2.243-5 5-5h40c2.757 0 5 2.243 5 5v1.08c.328-.047.66-.08 1-.08 3.859 0 7 3.14 7 7 0 2.15-.976 4.074-2.506 5.359 3.752 1.085 6.506 4.545 6.506 8.641zm-30.239-7c.083 0 .158.017.239.022v-4.022h-6v4h-8v4h10.026c-.006-.081-.026-.159-.026-.24 0-2.073 1.687-3.76 3.761-3.76zm-7.761-2v-8h-14v8zm10-4v6.679c.182.126.357.264.516.423l5.641 5.641c.41.408 1.191.264 1.426-.265l.864-1.945c1.066-2.397 2.931-4.277 5.195-5.393-2.168-1.192-3.642-3.497-3.642-6.14v-7h-38v22h11.5l3 4h14.901c-.114-.092-.232-.179-.342-.277l-5.796-5.151c-.195-.173-.367-.366-.52-.571h-12.743v-6h-8v-12.001h18v6zm17-6c-2.757 0-5 2.243-5 5s2.243 5 5 5 5-2.243 5-5-2.243-5-5-5zm-16 36h-20c-1.304 0-2.416.836-2.829 2h25.658c-.413-1.164-1.525-2-2.829-2zm-3-6h-14v4h14zm12-2v-2.512c-.934.322-1.924.512-2.953.512h-20.547c-.627 0-1.226-.299-1.601-.801l-2.399-3.199h-10.5c-1.103 0-2-.897-2-2v-22c0-1.103.897-2 2-2h38c1.103 0 2 .897 2 2v2.111c.574-.587 1.251-1.068 2-1.425v-1.686c0-1.654-1.346-3-3-3h-40c-1.654 0-3 1.346-3 3v28c0 1.654 1.346 3 3 3zm8 22v-18h-4v18c0 1.103.897 2 2 2s2-.897 2-2zm6-18h-4v18c0 1.103.897 2 2 2s2-.897 2-2zm2-13c0-3.86-3.141-7-7-7h-.501c-3.553 0-6.781 2.098-8.225 5.345l-.864 1.945c-.462 1.039-1.495 1.71-2.632 1.71-.758 0-1.499-.307-2.036-.843l-5.641-5.642c-.332-.332-.774-.515-1.245-.515-1.066 0-1.856.79-1.856 1.76 0 .503.216.982.591 1.316l5.796 5.152c1.285 1.143 2.94 1.772 4.66 1.772 2.674 0 5.078-1.486 6.273-3.877l2.785-5.57 1.789.895-2.785 5.57c-.728 1.456-1.812 2.64-3.109 3.494v5.488h14zm-18-19h-2v2h2zm-4 0h-2v2h2zm-4 0h-2v2h2z" fill="url(#SVGID_1_)"/></svg>