<svg id="Layer_35" enable-background="new 0 0 64 64" height="512" viewBox="0 0 64 64" width="512" xmlns="http://www.w3.org/2000/svg" xmlns:xlink="http://www.w3.org/1999/xlink"><linearGradient id="SVGID_1_" gradientUnits="userSpaceOnUse" x1="32" x2="32" y1="63.04" y2="1"><stop offset="0" stop-color="#9f2fff"/><stop offset="1" stop-color="#0bb1d3"/></linearGradient><path d="m27.117 50.504 1.736.992c-1.909 3.342-4.93 5.912-8.506 7.236l-.695-1.876c3.138-1.161 5.788-3.417 7.465-6.352zm.896-1.87 1.861.731c.273-.694.499-1.411.673-2.131l-1.943-.47c-.153.632-.352 1.261-.591 1.87zm34.987-2.029v8.395h-2v8h-14v-8h-2v-8.395c0-2.409 1.112-4.657 3-6.118v-3.487h2v-6h3v-12c0-4.338-1.742-8.274-4.555-11.159.991 1.835 1.555 3.932 1.555 6.159 0 7.168-5.832 13-13 13s-13-5.832-13-13c0-2.227.564-4.324 1.555-6.159-2.813 2.885-4.555 6.821-4.555 11.159v6h2.176l11.824 4.3v14.14c0 9.017-6.056 17.044-14.726 19.521l-.274.079-.274-.079c-8.67-2.477-14.726-10.504-14.726-19.521v-2.44h-1c-1.654 0-3-1.346-3-3v-4c0-1.654 1.346-3 3-3h1v-1.7l11.824-4.3h2.176v-6c0-9.925 8.075-18 18-18s18 8.075 18 18v12h3v6h2v3.488c1.888 1.46 3 3.709 3 6.117zm-41-13.605h-4v2h4zm-4 6c0 1.103.897 2 2 2s2-.897 2-2v-2h-4zm4-12h-4v4h4zm-15 16.44c0 .373.023.742.046 1.111 2.444-2.556 5.55-4.318 9-5.093-.017-.152-.046-.301-.046-.458v-11.572l-9 3.272zm-4-9.44v1h2v-2h-1c-.552 0-1 .449-1 1zm2 5v-2h-2v1c0 .551.448 1 1 1zm27.594 8.185c-2.361-3.029-5.651-5.076-9.369-5.839-.728.997-1.898 1.654-3.225 1.654s-2.497-.657-3.225-1.655c-3.718.764-7.008 2.811-9.369 5.839 1.362 6.439 6.144 11.82 12.594 13.774 6.45-1.954 11.232-7.335 12.594-13.773zm.406-16.485-9-3.273v11.573c0 .157-.029.306-.046.458 3.45.775 6.556 2.537 9 5.093.023-.369.046-.738.046-1.111zm15-16.7c0-5.686-4.337-10.379-9.877-10.943-.372-.026-.744-.057-1.123-.057s-.751.031-1.123.057c-5.54.564-9.877 5.257-9.877 10.943 0 6.065 4.935 11 11 11s11-4.935 11-11zm4 23h4v-4h-4zm7 18h-10v6h10zm2-8.395c0-1.922-.955-3.707-2.555-4.773l-.445-.297v-2.535h-8v2.535l-.445.297c-1.6 1.066-2.555 2.851-2.555 4.773v6.395h14zm-8 12.395v-2h-2v2zm4-2h-2v2h2zm-11-43c0 4.962-4.037 9-9 9s-9-4.038-9-9 4.037-9 9-9 9 4.038 9 9zm-2 0c0-3.86-3.141-7-7-7s-7 3.14-7 7 3.141 7 7 7 7-3.14 7-7zm5 37h2v-2h-2zm4 0h2v-2h-2zm4 0h2v-2h-2z" fill="url(#SVGID_1_)"/></svg>