<svg id="Layer_35" enable-background="new 0 0 64 64" height="512" viewBox="0 0 64 64" width="512" xmlns="http://www.w3.org/2000/svg" xmlns:xlink="http://www.w3.org/1999/xlink"><linearGradient id="SVGID_1_" gradientUnits="userSpaceOnUse" x1="32" x2="32" y1="63" y2="1"><stop offset="0" stop-color="#9f2fff"/><stop offset="1" stop-color="#0bb1d3"/></linearGradient><path d="m1 43h32.836c-2.965 2.742-4.836 6.652-4.836 11v9h30v-9c0-4.348-1.871-8.258-4.836-11h8.836v-42h-62zm56 11v7h-26v-7c0-7.168 5.832-13 13-13s13 5.832 13 13zm-19-21c0-3.309 2.691-6 6-6s6 2.691 6 6-2.691 6-6 6-6-2.691-6-6zm13.451 8c-.954-.549-1.966-1.005-3.036-1.335 2.158-1.434 3.585-3.885 3.585-6.665 0-4.411-3.589-8-8-8s-8 3.589-8 8c0 2.78 1.427 5.231 3.585 6.665-1.07.33-2.083.786-3.036 1.335h-33.549v-30h58v30zm9.549-38v6h-58v-6zm-16.986 41.836 1.973.328-2 12-1.973-.328zm4.767.539 4.5 5.625-4.5 5.625-1.562-1.25 3.5-4.375-3.5-4.375zm-8 1.25-3.5 4.375 3.5 4.375-1.562 1.25-4.5-5.625 4.5-5.625zm-33.781-39.625h-2v-2h2zm4 0h-2v-2h2zm4 0h-2v-2h2zm-4.5 18c-1.93 0-3.5-1.57-3.5-3.5 0-.827-.673-1.5-1.5-1.5h-.5v-2h.5c.827 0 1.5-.673 1.5-1.5 0-1.93 1.57-3.5 3.5-3.5h.5v2h-.5c-.827 0-1.5.673-1.5 1.5 0 .98-.407 1.864-1.058 2.5.651.636 1.058 1.52 1.058 2.5 0 .827.673 1.5 1.5 1.5h.5v2zm24 7h.5v2h-.5c-.827 0-1.5.673-1.5 1.5 0 1.93-1.57 3.5-3.5 3.5h-.5v-2h.5c.827 0 1.5-.673 1.5-1.5 0-.98.407-1.864 1.058-2.5-.651-.636-1.058-1.52-1.058-2.5 0-.827-.673-1.5-1.5-1.5h-.5v-2h.5c1.93 0 3.5 1.57 3.5 3.5 0 .827.673 1.5 1.5 1.5zm-21.5-19h14v2h-14zm0 4h14v2h-14zm0 4h14v2h-14zm0 4h14v2h-14zm0 4h14v2h-14zm-4 4h18v2h-18zm0 4h18v2h-18zm-4-8h2v2h-2zm4 0h2v2h-2zm-4 4h2v2h-2zm0 4h2v2h-2zm38-22h2v8h-2zm14 8h-2v-8h2zm-18-8h-2c-1.103 0-2 .897-2 2v4c0 1.103.897 2 2 2h2c1.103 0 2-.897 2-2v-4c0-1.103-.897-2-2-2zm-2 6v-4h2l.001 4zm14-6h-2c-1.103 0-2 .897-2 2v4c0 1.103.897 2 2 2h2c1.103 0 2-.897 2-2v-4c0-1.103-.897-2-2-2zm-2 6v-4h2l.001 4zm8 16h2v2h-2zm0-4h2v2h-2zm0-4h2v2h-2z" fill="url(#SVGID_1_)"/></svg>