<svg id="Layer_35" enable-background="new 0 0 64 64" height="512" viewBox="0 0 64 64" width="512" xmlns="http://www.w3.org/2000/svg" xmlns:xlink="http://www.w3.org/1999/xlink"><linearGradient id="SVGID_1_" gradientUnits="userSpaceOnUse" x1="32" x2="32" y1="63" y2="1"><stop offset="0" stop-color="#9f2fff"/><stop offset="1" stop-color="#0bb1d3"/></linearGradient><path d="m54.548 23.31c1.498-1.285 2.452-3.187 2.452-5.31 0-3.859-3.141-7-7-7-.34 0-.672.033-1 .08v-4.08h2v-6h-50v6h2v24h-2v6h42v22c0 2.206 1.794 4 4 4 1.201 0 2.266-.542 3-1.382.734.84 1.799 1.382 3 1.382 2.206 0 4-1.794 4-4v-13-4h2.5c1.93 0 3.5-1.57 3.5-3.5v-4.5c0-5.187-3.613-9.536-8.452-10.69zm.452-5.31c0 2.749-2.231 4.985-4.977 4.998l-.448-.041c-2.555-.22-4.575-2.346-4.575-4.957 0-2.757 2.243-5 5-5s5 2.243 5 5zm-52-15h46v2h-46zm2 4h42v4.685c-2.361 1.126-4 3.53-4 6.315 0 1.718.625 3.291 1.655 4.51l-4.655-.423v-9.587c0-1.93-1.57-3.5-3.5-3.5s-3.5 1.57-3.5 3.5v11.88c0 2.579 1.936 4.718 4.502 4.976l5.498.549v1.095h-38zm-2 28v-2h40v2zm52 24c0 1.103-.897 2-2 2s-2-.897-2-2v-13h4zm0-15h-6v-11h6v2h-1.5c-1.93 0-3.5 1.57-3.5 3.5s1.57 3.5 3.5 3.5h1.5zm6-5.5c0 .827-.673 1.5-1.5 1.5h-6c-.827 0-1.5-.673-1.5-1.5s.673-1.5 1.5-1.5h5.5v-2h-2v-4h-10v15h2v13c0 1.103-.897 2-2 2s-2-.897-2-2v-30.905l-7.299-.729c-1.54-.155-2.701-1.438-2.701-2.986v-11.88c0-.827.673-1.5 1.5-1.5s1.5.673 1.5 1.5v11.413l10.829.981c.382.065.771.106 1.171.106h2c4.963 0 9 4.037 9 9zm-47 6.5c-3.859 0-7 3.141-7 7s3.141 7 7 7 7-3.141 7-7-3.141-7-7-7zm0 12c-2.757 0-5-2.243-5-5s2.243-5 5-5 5 2.243 5 5-2.243 5-5 5zm22-10h-12.205c-1.871-3.666-5.646-6-9.795-6s-7.924 2.334-9.795 6h-.205c-1.654 0-3 1.346-3 3v10c0 1.654 1.346 3 3 3h32c1.654 0 3-1.346 3-3v-10c0-1.654-1.346-3-3-3zm1 13c0 .552-.448 1-1 1h-32c-.552 0-1-.448-1-1v-10c0-.552.448-1 1-1h1.492l.262-.6c1.434-3.28 4.671-5.4 8.246-5.4s6.812 2.12 8.246 5.4l.262.6h13.492c.552 0 1 .448 1 1zm-4-9h-8c-1.103 0-2 .897-2 2v4c0 1.103.897 2 2 2h8c1.103 0 2-.897 2-2v-4c0-1.103-.897-2-2-2zm0 6h-8v-4h8zm-19-8c-1.654 0-3 1.346-3 3s1.346 3 3 3 3-1.346 3-3-1.346-3-3-3zm0 4c-.552 0-1-.448-1-1s.448-1 1-1 1 .448 1 1-.448 1-1 1zm-9 4h2v2h-2zm16-48h-14v12h10v8h14v-12h-10zm-12 2h10v8h-10zm20 8v8h-10v-6h2v-2zm-22 8h2v2h-2zm4 0h2v2h-2z" fill="url(#SVGID_1_)"/></svg>