<svg id="Layer_35" enable-background="new 0 0 64 64" height="512" viewBox="0 0 64 64" width="512" xmlns="http://www.w3.org/2000/svg" xmlns:xlink="http://www.w3.org/1999/xlink"><linearGradient id="SVGID_1_" gradientUnits="userSpaceOnUse" x1="32" x2="32" y1="63" y2="1"><stop offset="0" stop-color="#9f2fff"/><stop offset="1" stop-color="#0bb1d3"/></linearGradient><path d="m49 5c0-2.206-1.794-4-4-4-1.2 0-2.266.542-3 1.382-.734-.84-1.8-1.382-3-1.382s-2.266.542-3 1.382c-.734-.84-1.8-1.382-3-1.382s-2.266.542-3 1.382c-.734-.84-1.8-1.382-3-1.382-2.206 0-4 1.794-4 4v2h-10v3c0 .551-.449 1-1 1s-1-.449-1-1v-3h-10v28h15.742l.068.543c.15 1.206.616 2.358 1.346 3.331l1.844 2.459v3.667h-2v18h31v-18h-2v-2.764l1.261-2.522c.484-.967.739-2.049.739-3.13v-1.584h14v-10h-4v-8h4v-10h-14zm-4-2c1.103 0 2 .897 2 2v2h-4v-2c0-1.103.897-2 2-2zm10 8v-2h2v2zm-2 0h-2v-2h2zm-4 0h-2v-2h2zm-30 0v-2h2v2zm4-2h2v2h-2zm4 0h2v2h-2zm4 0h2v2h-2zm4 0h2v2h-2zm4 0h2v2h-2zm4 0h2v2h-2zm-4-6c1.103 0 2 .897 2 2v2h-4v-2c0-1.103.897-2 2-2zm-6 0c1.103 0 2 .897 2 2v2h-4v-2c0-1.103.897-2 2-2zm-8 2c0-1.103.897-2 2-2s2 .897 2 2v2h-4zm-10 5v-1h2v2h-2.184c.112-.314.184-.648.184-1zm-5.816 1h-2.184v-2h2v1c0 .352.072.686.184 1zm-4.184-2v2h-2v-2zm10 14.042c-1.134.198-2 1.183-2 2.372 0 .645.251 1.251.707 1.707.492.492.92 1.039 1.293 1.622v.257h-6v-12h6zm5 37.958v-14h27v2h-15c-2.757 0-5 2.243-5 5s2.243 5 5 5h15v2zm27-10v6h-15c-1.654 0-3-1.346-3-3s1.346-3 3-3zm0-14.416c0 .771-.183 1.545-.528 2.235l-1.472 2.945v3.236h-23v-4.333l-2.244-2.993c-.521-.694-.854-1.518-.961-2.379l-.349-2.791c-.32-2.56-1.5-4.973-3.325-6.797-.077-.077-.121-.184-.121-.293 0-.228.186-.414.414-.414 3.341 0 6.242 2.378 6.897 5.654l.869 4.346h.82c2.757 0 5 2.243 5 5h2c0-1.958-.812-3.728-2.113-5h18.113zm-23.086-7.584c-.58-1.622-1.603-3.015-2.914-4.05v-7.95h6v12zm33.086-14v12h4v6h-36.18l-.4-2h2.58c1.103 0 2-.897 2-2v-12c0-1.103-.897-2-2-2h-6c-1.103 0-2 .897-2 2v6.754c-.636-.277-1.304-.488-2-.613v-6.141c0-1.103-.897-2-2-2h-6c-1.103 0-2 .897-2 2v12c0 1.103.897 2 2 2h6c.356 0 .685-.101.975-.264.231.652.4 1.327.487 2.017l.03.247h-13.492v-20h58v2zm4-4h-2v-2h2zm-10 4h-6c-1.103 0-2 .897-2 2v12c0 1.103.897 2 2 2h6c1.103 0 2-.897 2-2v-12c0-1.103-.897-2-2-2zm0 14h-6v-12h6zm-12-14h-6c-1.103 0-2 .897-2 2v12c0 1.103.897 2 2 2h6c1.103 0 2-.897 2-2v-12c0-1.103-.897-2-2-2zm0 14h-6v-12h6zm-8 24h2v2h-2zm6 2h-2v-2h2zm4 0h-2v-2h2zm-19-6h2v2h-2zm0 4h2v2h-2zm0 4h2v2h-2z" fill="url(#SVGID_1_)"/></svg>