<svg id="Layer_35" enable-background="new 0 0 64 64" height="512" viewBox="0 0 64 64" width="512" xmlns="http://www.w3.org/2000/svg" xmlns:xlink="http://www.w3.org/1999/xlink"><linearGradient id="SVGID_1_" gradientUnits="userSpaceOnUse" x1="32" x2="32" y1="63" y2="1"><stop offset="0" stop-color="#9f2fff"/><stop offset="1" stop-color="#0bb1d3"/></linearGradient><path d="m11 29h2v4h-2zm4 4h2v-4h-2zm-2 12h-2v2h2zm16 0h-14v2h14zm0 4h-18v2h18zm0 4h-18v2h18zm0 4h-18v2h18zm2-56h32v38h-12v12h-12v9c0 1.654-1.346 3-3 3h-32c-1.654 0-3-1.346-3-3v-32c0-1.654 1.346-3 3-3h15v-12h12zm-22 34h22v-8h-22zm22 8h-22v18h22zm6-10.586-4-4v8.586h-26v-10h-3c-.552 0-1 .448-1 1v32c0 .552.448 1 1 1h3v-20h26v20h3c.552 0 1-.448 1-1zm12-17.414h-28v10h11.414l6.586 6.586v17.414h10zm-16-12v10h18v24h10v-34zm4 2h-2v2h2zm22 0h-20v2h20zm0 4h-24v2h24zm-6 6h6v-2h-6zm0 4h6v-2h-6zm0 4h6v-2h-6zm0 4h6v-2h-6zm0 4h6v-2h-6zm0 4h6v-2h-6zm-12-4h6v-2h-6zm0-4h6v-2h-6zm0 8h6v-2h-6zm0 4h6v-2h-6zm0 4h6v-2h-6zm0 4h6v-2h-6zm6-24h-24v-6h24zm-2-4h-20v2h20z" fill="url(#SVGID_1_)"/></svg>