<svg id="Layer_35" enable-background="new 0 0 64 64" height="512" viewBox="0 0 64 64" width="512" xmlns="http://www.w3.org/2000/svg" xmlns:xlink="http://www.w3.org/1999/xlink"><linearGradient id="SVGID_1_" gradientUnits="userSpaceOnUse" x1="32" x2="32" y1="63" y2="1"><stop offset="0" stop-color="#9f2fff"/><stop offset="1" stop-color="#0bb1d3"/></linearGradient><path d="m58 1h-52c-2.757 0-5 2.243-5 5v26c0 2.757 2.243 5 5 5h7.327c.898 4.69 3.619 8.836 7.673 11.544v14.456h18v-14.456c4.054-2.708 6.775-6.854 7.673-11.544h11.327c2.757 0 5-2.243 5-5v-26c0-2.757-2.243-5-5-5zm-55 12h1c.552 0 1 .449 1 1v10c0 .551-.448 1-1 1h-1zm42 12.351v-6.351h-12v10h7v2h-6.413c-1.051-.631-2.275-1-3.587-1s-2.536.369-3.587 1h-6.413v-2h5v-6h4v-14h-12v10h-4v9h.051c-.024.165-.051.329-.051.5v2.5h-2v-24h38v24h-2v-2.5c0-1.391-.822-2.585-2-3.149zm-26-6.351v-8h8v10h-2v-2zm4 2v6h-3.351c-.564-1.178-1.758-2-3.149-2-.539 0-1.044.133-1.5.351v-4.351zm2 16c0-2.757 2.243-5 5-5s5 2.243 5 5-2.243 5-5 5-5-2.243-5-5zm-.927 3.707c-2.373-1.845-3.872-4.639-4.051-7.707h4.241c-.793 1.135-1.263 2.513-1.263 4 0 1.362.397 2.631 1.073 3.707zm11.663-7.707h4.241c-.178 3.069-1.677 5.863-4.051 7.707.677-1.076 1.074-2.345 1.074-3.707 0-1.487-.47-2.865-1.264-4zm4.615-6h-5.351v-6h8v4.051c-1.173.17-2.154.916-2.649 1.949zm4.649 6.566c0 5.56-2.815 10.639-7.53 13.586l-.47.294v13.554h-14v-13.554l-.47-.294c-4.715-2.947-7.53-8.026-7.53-13.586v-5.066c0-.827.673-1.5 1.5-1.5s1.5.673 1.5 1.5v3.884c0 5.027 2.985 9.555 7.606 11.535l.189.081h8.41l.188-.081c4.622-1.98 7.607-6.507 7.607-11.535v-3.884c0-.827.673-1.5 1.5-1.5s1.5.673 1.5 1.5zm2 0v-.566h2c1.103 0 2-.897 2-2v-24c0-1.103-.897-2-2-2h-38c-1.103 0-2 .897-2 2v24c0 1.103.897 2 2 2h2v.566c0 .482.026.959.063 1.434h-7.063c-1.654 0-3-1.346-3-3v-5h1c1.654 0 3-1.346 3-3v-10c0-1.654-1.346-3-3-3h-1v-5c0-1.654 1.346-3 3-3h47v32h-6.063c.037-.475.063-.952.063-1.434zm14-1.566c0 1.654-1.346 3-3 3h-3v-32h3c1.654 0 3 1.346 3 3zm-4-17h2v8h-2zm-10-4h-2v-2h2zm-6-2h2v2h-2zm-4 0h2v2h-2z" fill="url(#SVGID_1_)"/></svg>