<svg id="Layer_35" enable-background="new 0 0 64 64" height="512" viewBox="0 0 64 64" width="512" xmlns="http://www.w3.org/2000/svg" xmlns:xlink="http://www.w3.org/1999/xlink"><linearGradient id="SVGID_1_" gradientUnits="userSpaceOnUse" x1="32" x2="32" y1="63" y2="1"><stop offset="0" stop-color="#9f2fff"/><stop offset="1" stop-color="#0bb1d3"/></linearGradient><path d="m28 25c0 2.206 1.794 4 4 4s4-1.794 4-4-1.794-4-4-4-4 1.794-4 4zm6 0c0 1.103-.897 2-2 2s-2-.897-2-2 .897-2 2-2 2 .897 2 2zm-10 0c0 4.411 3.589 8 8 8s8-3.589 8-8-3.589-8-8-8-8 3.589-8 8zm14 0c0 3.309-2.691 6-6 6s-6-2.691-6-6 2.691-6 6-6 6 2.691 6 6zm-20 0c0 7.72 6.28 14 14 14s14-6.28 14-14-6.28-14-14-14-14 6.28-14 14zm26 0c0 6.617-5.383 12-12 12s-12-5.383-12-12 5.383-12 12-12 12 5.383 12 12zm-37 37v1h12v-1c0-4.963 4.038-9 9-9h8c4.962 0 9 4.037 9 9v1h12v-1c0-7.495-3.91-14.271-10.303-18.047 5.655-4.395 9.303-11.254 9.303-18.953 0-13.233-10.767-24-24-24s-24 10.767-24 24c0 7.699 3.648 14.558 9.303 18.953-6.393 3.776-10.303 10.552-10.303 18.047zm2.026-1c.035-.676.115-1.341.219-2h8.173c-.183.645-.31 1.313-.372 2zm9.181-4h-8.539c.811-2.994 2.344-5.721 4.46-7.969 1.42 2.295 3.282 4.304 5.46 5.904-.532.634-1 1.322-1.381 2.065zm28.748 4c-.062-.687-.189-1.355-.372-2h8.173c.104.659.184 1.324.219 2zm7.377-4h-8.539c-.381-.742-.849-1.431-1.381-2.064 2.179-1.6 4.04-3.609 5.461-5.904 2.115 2.247 3.648 4.974 4.459 7.968zm-16.391-53.178 7.711 12.619c1.536 2.512 2.348 5.398 2.348 8.342v.217c0 8.822-7.178 16-16 16s-16-7.178-16-16v-.217c0-2.944.812-5.83 2.348-8.343l7.712-12.619c1.891-.531 3.881-.821 5.94-.821s4.05.29 5.941.822zm-27.941 21.178c0-8.944 5.368-16.654 13.049-20.089l-6.409 10.487c-1.727 2.827-2.64 6.073-2.64 9.385v.217c0 9.925 8.075 18 18 18s18-8.075 18-18v-.217c0-3.312-.913-6.559-2.641-9.386l-6.408-10.486c7.681 3.436 13.049 11.145 13.049 20.089 0 12.131-9.869 22-22 22s-22-9.869-22-22zm22 24c4.738 0 9.155-1.386 12.88-3.765 1.271.673 2.444 1.47 3.504 2.376-1.365 2.321-3.218 4.336-5.418 5.895-1.899-1.56-4.322-2.506-6.966-2.506h-8c-2.644 0-5.067.946-6.966 2.507-2.2-1.56-4.052-3.575-5.418-5.895 1.061-.906 2.233-1.703 3.504-2.376 3.725 2.378 8.142 3.764 12.88 3.764zm0-39c1.654 0 3-1.346 3-3s-1.346-3-3-3-3 1.346-3 3 1.346 3 3 3zm0-4c.551 0 1 .448 1 1s-.449 1-1 1-1-.448-1-1 .449-1 1-1z" fill="url(#SVGID_1_)"/></svg>